<svg width="200" height="200" viewBox="0 0 200 200" fill="none" xmlns="http://www.w3.org/2000/svg">
<path fill-rule="evenodd" clip-rule="evenodd" d="M166.667 33.3333V166.667H33.3333V33.3333H166.667ZM89.4528 66.6667H76.4676L51.8146 133.333H63.5295L68.1839 120.301H97.6953L102.25 133.333H114.67L89.4528 66.6667ZM135.466 66.6667H123.798V133.333H135.466V66.6667ZM82.8618 77.8517L94.4839 111.111H71.4245L82.8618 77.8517ZM177.778 133.333H200V155.556H177.778V133.333ZM44.4444 177.778H66.6667V200H44.4444V177.778ZM88.8889 177.778H111.111V200H88.8889V177.778ZM44.4444 0H66.6667V22.2222H44.4444V0ZM133.333 177.778H155.556V200H133.333V177.778ZM88.8889 0H111.111V22.2222H88.8889V0ZM133.333 0H155.556V22.2222H133.333V0ZM177.778 88.8889H200V111.111H177.778V88.8889ZM0 133.333H22.2222V155.556H0V133.333ZM177.778 44.4444H200V66.6667H177.778V44.4444ZM0 88.8889H22.2222V111.111H0V88.8889ZM0 44.4444H22.2222V66.6667H0V44.4444Z" fill="#00FFD1"/>
</svg>
