<svg width="24" height="24" viewBox="0 0 24 24" fill="none" xmlns="http://www.w3.org/2000/svg">
<path d="M19.2 3.6001H4.79623C4.13623 3.6001 3.59998 4.14385 3.59998 4.81135V19.1888C3.59998 19.8563 4.13623 20.4001 4.79623 20.4001H19.2C19.86 20.4001 20.4 19.8563 20.4 19.1888V4.81135C20.4 4.14385 19.86 3.6001 19.2 3.6001ZM8.67747 18.0001H6.18748V9.9826H8.68123V18.0001H8.67747ZM7.43248 6.0001C8.23123 6.0001 8.87622 6.6451 8.87622 7.44385C8.87622 8.2426 8.23123 8.8876 7.43248 8.8876C6.63373 8.8876 5.98873 8.2426 5.98873 7.44385C5.98873 6.6451 6.63373 6.0001 7.43248 6.0001ZM18.0112 18.0001H15.5212V14.1001C15.5212 13.1701 15.5025 11.9738 14.2275 11.9738C12.93 11.9738 12.7312 12.9863 12.7312 14.0326V18.0001H10.2412V9.9826H12.63V11.0776H12.6637C12.9975 10.4476 13.8112 9.78385 15.0225 9.78385C17.5425 9.78385 18.0112 11.4451 18.0112 13.6051V18.0001Z" fill="#0A66C2"/>
</svg>
