<svg width="260" height="177" viewBox="0 0 260 177" fill="none" xmlns="http://www.w3.org/2000/svg">
<path d="M177.732 17.9407C176.464 17.9407 175.619 18.1117 174.766 18.3234V18.4537H174.896C175.489 19.5532 176.464 20.4083 177.22 21.4263C177.813 22.5746 178.317 23.7554 178.869 24.9037L179.04 24.7327C180.056 24.0079 180.568 22.8677 180.568 21.1249C180.145 20.6119 180.056 20.0662 179.682 19.5939C179.259 18.8691 178.325 18.4944 177.732 17.9407ZM62.4995 161.217H52.4729C52.1316 144.253 51.116 128.299 49.5559 113.331H49.4747L34.1992 161.217H26.5371L11.3835 113.331H11.2535C10.1566 127.664 9.43342 143.659 9.14091 161.217H0C0.593144 139.839 2.07194 119.821 4.44451 101.155H16.8843L31.3554 145.271H31.4366L46.0377 101.155H57.8843C60.5088 123.046 62.0769 143.064 62.5401 161.217H62.4995ZM106.002 116.898C101.939 139.123 96.5199 155.288 89.8816 165.338C84.6326 173.099 78.9206 177 72.6966 177C71.0472 177 69.0159 176.487 66.5621 175.469V170.127C67.789 170.298 69.1865 170.42 70.7547 170.42C73.6717 170.42 76.0036 169.573 77.7831 168.001C79.8956 166.046 80.96 163.848 80.96 161.429C80.96 159.735 80.1556 156.339 78.4656 151.167L67.5046 116.898H77.3687L85.242 142.519C87.0215 148.374 87.7852 152.405 87.444 154.734C91.7991 143.194 94.8055 130.555 96.5036 116.898H106.002ZM239.557 161.217H211.037V101.155H220.641V153.839H239.557V161.217ZM203.586 162.667L192.585 157.235C193.56 156.428 194.486 155.541 195.339 154.523C200.036 149.05 202.368 140.865 202.368 130.091C202.368 110.195 194.584 100.276 179.007 100.276C171.386 100.276 165.422 102.776 161.148 107.825C156.492 113.339 154.12 121.483 154.12 132.216C154.12 142.779 156.192 150.5 160.344 155.459C164.155 159.873 169.867 162.121 177.529 162.121C180.364 162.121 182.989 161.779 185.361 161.062L199.711 169.459L203.643 162.675L203.586 162.667ZM167.917 149.172C165.463 145.271 164.276 138.992 164.276 130.335C164.276 115.196 168.851 107.646 178.032 107.646C182.818 107.646 186.369 109.47 188.612 113.078C191.025 117.02 192.252 123.217 192.252 131.785C192.252 147.014 187.636 154.694 178.496 154.694C173.669 154.694 170.159 152.87 167.876 149.262L167.917 149.172ZM149.968 144.595C149.968 149.685 148.107 153.887 144.337 157.104C140.616 160.37 135.659 162.023 129.354 162.023C123.471 162.023 117.841 160.158 112.299 156.42L114.883 151.249C119.62 153.627 123.894 154.816 127.794 154.816C131.393 154.816 134.229 154.01 136.26 152.438C138.292 150.825 139.519 148.578 139.519 145.735C139.519 142.168 137.024 139.114 132.49 136.573C128.298 134.244 119.88 129.448 119.88 129.448C115.305 126.1 113.063 122.533 113.063 116.637C113.063 111.759 114.753 107.858 118.141 104.885C121.57 101.831 125.925 100.349 131.345 100.349C136.886 100.349 141.964 101.831 146.539 104.804L144.215 109.975C140.323 108.322 136.472 107.475 132.702 107.475C129.614 107.475 127.241 108.241 125.592 109.723C123.943 111.205 122.927 113.07 122.927 115.407C122.927 118.974 125.47 122.028 130.118 124.651C134.392 126.98 142.98 131.907 142.98 131.907C147.676 135.213 150.008 138.78 150.008 144.587L149.968 144.595ZM251.582 81.0155C245.781 80.8852 241.296 81.4797 237.534 83.0922C236.477 83.5157 234.739 83.5157 234.568 84.8757C235.161 85.4702 235.242 86.4068 235.754 87.2049C236.64 88.6464 238.127 90.6009 239.524 91.6189C241.052 92.8079 242.571 93.9969 244.14 95.0149C246.975 96.7577 250.152 97.7757 252.939 99.5104C254.507 100.528 256.116 101.84 257.676 102.906C258.481 103.46 258.984 104.437 260 104.771V104.56C259.488 103.924 259.366 102.988 258.854 102.23C258.131 101.506 257.416 100.87 256.693 100.154C254.58 97.3115 251.997 94.852 249.161 92.8161C246.837 91.2443 241.759 89.0373 240.824 86.3661L240.694 86.1951C242.263 86.0648 244.123 85.4702 245.643 85.0468C248.096 84.4115 250.38 84.5337 252.923 83.8985C254.069 83.6053 255.206 83.2632 256.392 82.8805V82.2452C255.084 80.9341 254.109 79.1505 252.752 77.9208C249.072 74.7365 245.009 71.6011 240.816 69.0113C238.533 67.5291 235.657 66.5926 233.244 65.3628C232.399 64.9394 230.92 64.7276 230.448 64.0028C229.14 62.3903 228.376 60.3136 227.442 58.3998C225.37 54.4092 223.339 50.0034 221.519 45.7604C220.211 42.9181 219.447 40.1166 217.838 37.4861C210.387 25.1399 202.262 17.6801 189.822 10.3424C187.157 8.8113 183.94 8.17607 180.551 7.36982C178.731 7.28838 176.952 7.15808 175.132 7.07664C173.945 6.56358 172.808 5.21168 171.792 4.52759C167.648 1.89709 156.98 -3.74666 153.974 3.72134C152.024 8.46926 156.85 13.095 158.548 15.473C159.775 17.167 161.343 19.0401 162.229 20.9051C162.741 22.1755 162.863 23.4948 163.374 24.806C164.52 27.9903 165.617 31.5492 167.145 34.5217C167.949 36.0528 168.794 37.6571 169.81 39.0172C170.403 39.8234 171.418 40.1655 171.63 41.4767C170.614 42.9589 170.533 45.1251 169.98 46.9087C167.356 55.1341 168.372 65.2733 172.052 71.3405C173.239 73.1647 175.985 77.1553 179.674 75.6242C182.932 74.313 182.217 70.1922 183.143 66.5437C183.354 65.656 183.224 65.1022 183.655 64.5077V64.6787C184.711 66.7147 185.727 68.6693 186.661 70.7053C188.863 74.2723 192.796 77.9615 196.054 80.421C197.793 81.7322 199.142 83.988 201.303 84.7861V84.5744H201.133C200.669 83.9392 200.076 83.6379 199.483 83.1329C198.175 81.8218 196.729 80.2093 195.672 78.7678C192.666 74.6958 189.96 70.2003 187.588 65.5746C186.401 63.2861 185.386 60.8267 184.46 58.5789C184.037 57.732 184.037 56.4126 183.314 55.9892C182.217 57.5609 180.608 58.9128 179.844 60.9081C178.447 64.0028 178.317 67.863 177.772 71.8536C177.521 71.935 177.642 71.8536 177.521 72.0246C175.197 71.4301 174.392 69.0521 173.539 67.0161C171.337 61.8447 170.996 53.5704 172.865 47.6335C173.377 46.1024 175.53 41.3138 174.685 39.8723C174.222 38.4715 172.784 37.6653 172.02 36.5659C171.045 35.2058 170.07 33.4712 169.395 31.9401C167.656 27.8681 166.811 23.3727 164.91 19.3007C164.065 17.4357 162.538 15.4812 161.311 13.7465C159.913 11.792 158.394 10.3994 157.329 8.10278C156.947 7.29653 156.444 5.98535 157.037 5.13024C157.167 4.53573 157.459 4.32399 158.052 4.15297C158.987 3.34672 161.693 4.36471 162.627 4.82892C165.292 5.88763 167.535 6.90562 169.777 8.43668C170.793 9.16149 171.89 10.5134 173.206 10.8962H174.734C177.057 11.4092 179.641 11.0265 181.803 11.7024C185.654 12.9321 189.123 14.7157 192.252 16.6621C201.734 22.7293 209.518 31.2967 214.807 41.5174C215.693 43.1706 216.075 44.7017 216.879 46.4363C218.358 50.0441 220.268 53.6437 221.787 57.0804C223.306 60.5172 224.753 63.9947 226.946 66.8369C228.043 68.368 232.366 69.1661 234.349 69.9316C235.787 70.6075 238.029 71.2021 239.297 71.9676C241.791 73.4986 244.245 75.2333 246.577 76.9272C247.763 77.7335 251.363 79.5577 251.574 80.9992L251.582 81.0155Z" fill="#4479A1"/>
</svg>
