<svg width="200" height="185" viewBox="0 0 200 185" fill="none" xmlns="http://www.w3.org/2000/svg">
<path d="M134.734 160.205C133.698 159.575 132.795 158.729 132.077 157.705C131.746 157.232 131.466 156.733 131.234 156.216H13.4698V40.1419H173.317V115.934C176.73 116.243 179.593 118.484 180.795 121.553C181.86 120.97 183.046 120.609 184.293 120.499C185.136 120.426 185.974 120.478 186.787 120.639V11.2252C186.787 5.0356 181.752 0 175.563 0H11.2247C5.0356 0 0 5.0356 0 11.2252V158.462C0 164.652 5.0356 169.687 11.2247 169.687H133.711C132.755 167.751 132.529 165.566 133.091 163.464C133.415 162.254 133.976 161.151 134.734 160.205ZM160.991 18.8493C160.991 16.5604 162.846 14.7043 165.135 14.7043H169.28C171.569 14.7043 173.424 16.5599 173.424 18.8493V23.5468C173.424 25.8357 171.569 27.6912 169.28 27.6912H165.135C162.846 27.6912 160.991 25.8357 160.991 23.5468V18.8493ZM141.719 18.8493C141.719 16.5604 143.574 14.7043 145.863 14.7043H150.008C152.298 14.7043 154.153 16.5599 154.153 18.8493V23.5468C154.153 25.8357 152.297 27.6912 150.008 27.6912H145.863C143.574 27.6912 141.719 25.8357 141.719 23.5468V18.8493ZM122.446 18.8493C122.446 16.5604 124.302 14.7043 126.59 14.7043H130.735C133.024 14.7043 134.88 16.5599 134.88 18.8493V23.5468C134.88 25.8357 133.024 27.6912 130.735 27.6912H126.59C124.302 27.6912 122.446 25.8357 122.446 23.5468V18.8493Z" fill="white"/>
<path d="M199.974 152.3L198.728 145.237C198.56 144.286 197.654 143.651 196.702 143.818L190.42 144.925C189.667 143.156 188.704 141.498 187.561 139.982L191.663 135.091C191.961 134.737 192.106 134.277 192.066 133.815C192.026 133.352 191.803 132.926 191.447 132.627L185.954 128.017C185.599 127.719 185.138 127.574 184.676 127.614C184.214 127.655 183.787 127.877 183.489 128.232L179.39 133.119C177.707 132.262 175.908 131.601 174.022 131.164V124.786C174.022 123.82 173.239 123.036 172.273 123.036H165.1C164.135 123.036 163.351 123.82 163.351 124.786V131.164C161.464 131.6 159.666 132.262 157.983 133.119L153.883 128.233C153.262 127.493 152.159 127.397 151.418 128.017L145.925 132.627C145.569 132.926 145.347 133.352 145.306 133.815C145.266 134.277 145.411 134.737 145.709 135.093L149.812 139.982C148.671 141.498 147.706 143.157 146.952 144.926L140.671 143.818C139.721 143.651 138.813 144.286 138.644 145.237L137.399 152.3C137.319 152.757 137.423 153.227 137.688 153.607C137.956 153.988 138.36 154.246 138.817 154.327L145.103 155.435C145.205 157.382 145.545 159.266 146.09 161.06L140.566 164.249C140.164 164.48 139.871 164.863 139.75 165.311C139.63 165.759 139.694 166.236 139.925 166.638L143.511 172.849C143.742 173.251 144.125 173.544 144.572 173.664C144.722 173.704 144.873 173.723 145.025 173.723C145.33 173.723 145.631 173.644 145.9 173.489L151.429 170.297C152.729 171.69 154.197 172.924 155.801 173.968L153.618 179.966C153.46 180.402 153.48 180.883 153.676 181.304C153.873 181.724 154.227 182.049 154.663 182.208L161.401 184.66C161.595 184.73 161.798 184.767 162 184.767C162.253 184.767 162.506 184.712 162.74 184.602C163.161 184.407 163.485 184.051 163.644 183.615L165.826 177.617C166.762 177.731 167.715 177.789 168.681 177.789C169.648 177.789 170.6 177.73 171.536 177.617L173.719 183.615C173.877 184.051 174.203 184.407 174.623 184.602C174.856 184.711 175.109 184.767 175.363 184.767C175.565 184.767 175.768 184.731 175.961 184.66L182.7 182.208C183.135 182.049 183.49 181.723 183.686 181.304C183.882 180.883 183.903 180.402 183.745 179.966L181.561 173.969C183.164 172.925 184.632 171.69 185.934 170.298L191.463 173.49C191.731 173.644 192.033 173.724 192.337 173.724C192.488 173.724 192.642 173.704 192.79 173.665C193.238 173.545 193.62 173.251 193.852 172.85L197.437 166.638C197.669 166.237 197.732 165.759 197.612 165.311C197.492 164.864 197.199 164.481 196.797 164.249L191.273 161.061C191.819 159.267 192.157 157.383 192.259 155.436L198.545 154.327C199.002 154.247 199.408 153.988 199.674 153.608C199.95 153.227 200.054 152.757 199.974 152.3ZM168.687 163.524C163.374 163.524 159.066 159.216 159.066 153.903C159.066 148.59 163.375 144.282 168.687 144.282C174 144.282 178.308 148.59 178.308 153.903C178.308 159.216 174 163.524 168.687 163.524Z" fill="white"/>
<path d="M78.4392 104.484C78.4392 102.221 77.1128 100.142 75.0596 99.1886L56.2684 90.4576L75.0601 81.7257C77.1128 80.7713 78.4392 78.6928 78.4392 76.4306V76.2786C78.4392 74.2735 77.43 72.4328 75.7411 71.3569C74.8067 70.7601 73.7184 70.4443 72.5949 70.4443C71.7481 70.4443 70.898 70.6306 70.1374 70.9839L40.0952 84.9544C38.043 85.9088 36.7175 87.9872 36.7175 90.249V90.6667C36.7175 92.9257 38.0425 95.0027 40.0957 95.9619L70.1407 109.934C70.9175 110.293 71.7448 110.476 72.5992 110.476C73.7127 110.476 74.7976 110.159 75.7411 109.559C77.4309 108.479 78.4397 106.64 78.4397 104.637L78.4392 104.484Z" fill="white"/>
<path d="M108.081 56.2091C106.985 54.7089 105.222 53.8135 103.365 53.8135H103.216C100.666 53.8135 98.4301 55.4447 97.6533 57.8694L77.8595 119.2C77.2961 120.97 77.6133 122.921 78.7078 124.42C79.8037 125.92 81.5663 126.816 83.4233 126.816H83.5733C86.1223 126.816 88.3565 125.184 89.1324 122.76L108.924 61.4343C109.492 59.6649 109.177 57.7117 108.081 56.2091Z" fill="white"/>
<path d="M146.691 84.9539L116.649 70.9835C115.891 70.6311 115.042 70.4448 114.195 70.4448C113.072 70.4448 111.983 70.7596 111.049 71.3555C109.358 72.4332 108.348 74.2736 108.348 76.2787V76.4306C108.348 78.691 109.674 80.7699 111.729 81.7281L130.519 90.4581L111.728 99.1886C109.675 100.142 108.348 102.221 108.348 104.484V104.637C108.348 106.64 109.358 108.479 111.048 109.56C111.989 110.159 113.074 110.476 114.189 110.476C115.043 110.476 115.869 110.293 116.651 109.932L146.695 95.9605C148.747 95.0037 150.071 92.9262 150.071 90.6672V90.2495C150.07 87.9873 148.744 85.9088 146.691 84.9539Z" fill="white"/>
</svg>
