<svg width="129" height="128" viewBox="0 0 129 128" fill="none" xmlns="http://www.w3.org/2000/svg">
<circle cx="67.12" cy="63.5676" r="2.5" transform="rotate(132.678 67.12 63.5676)" fill="#D9D9D9" fill-opacity="0.7"/>
<circle cx="56.0922" cy="53.3995" r="2.5" transform="rotate(132.678 56.0922 53.3995)" fill="#D9D9D9" fill-opacity="0.7"/>
<circle cx="45.0645" cy="43.2315" r="2.5" transform="rotate(132.678 45.0645 43.2315)" fill="#D9D9D9" fill-opacity="0.7"/>
<circle cx="34.0369" cy="33.0634" r="2.5" transform="rotate(132.678 34.0369 33.0634)" fill="#D9D9D9" fill-opacity="0.7"/>
<circle cx="56.9519" cy="74.5953" r="2.5" transform="rotate(132.678 56.9519 74.5953)" fill="#D9D9D9" fill-opacity="0.7"/>
<circle cx="46.7838" cy="85.623" r="2.5" transform="rotate(132.678 46.7838 85.623)" fill="#D9D9D9" fill-opacity="0.7"/>
<circle cx="36.6157" cy="96.6507" r="2.5" transform="rotate(132.678 36.6157 96.6507)" fill="#D9D9D9" fill-opacity="0.7"/>
<circle cx="88.3157" cy="62.708" r="2.5" transform="rotate(132.678 88.3157 62.708)" fill="#D9D9D9" fill-opacity="0.7"/>
<circle cx="77.288" cy="52.5399" r="2.5" transform="rotate(132.678 77.288 52.5399)" fill="#D9D9D9" fill-opacity="0.7"/>
<circle cx="66.2603" cy="42.3718" r="2.5" transform="rotate(132.678 66.2603 42.3718)" fill="#D9D9D9" fill-opacity="0.7"/>
<circle cx="55.2326" cy="32.2038" r="2.5" transform="rotate(132.678 55.2326 32.2038)" fill="#D9D9D9" fill-opacity="0.7"/>
<circle cx="78.1476" cy="73.7357" r="2.5" transform="rotate(132.678 78.1476 73.7357)" fill="#D9D9D9" fill-opacity="0.7"/>
<circle cx="67.9795" cy="84.7634" r="2.5" transform="rotate(132.678 67.9795 84.7634)" fill="#D9D9D9" fill-opacity="0.7"/>
<circle cx="57.8115" cy="95.7911" r="2.5" transform="rotate(132.678 57.8115 95.7911)" fill="#D9D9D9" fill-opacity="0.7"/>
<circle cx="109.511" cy="61.8484" r="2.5" transform="rotate(132.678 109.511 61.8484)" fill="#D9D9D9" fill-opacity="0.7"/>
<circle cx="98.4838" cy="51.6803" r="2.5" transform="rotate(132.678 98.4838 51.6803)" fill="#D9D9D9" fill-opacity="0.7"/>
<circle cx="87.4561" cy="41.5122" r="2.5" transform="rotate(132.678 87.4561 41.5122)" fill="#D9D9D9" fill-opacity="0.7"/>
<circle cx="76.4284" cy="31.3441" r="2.5" transform="rotate(132.678 76.4284 31.3441)" fill="#D9D9D9" fill-opacity="0.7"/>
<circle cx="99.3434" cy="72.8761" r="2.5" transform="rotate(132.678 99.3434 72.8761)" fill="#D9D9D9" fill-opacity="0.7"/>
<circle cx="89.1753" cy="83.9038" r="2.5" transform="rotate(132.678 89.1753 83.9038)" fill="#D9D9D9" fill-opacity="0.7"/>
<circle cx="79.0073" cy="94.9315" r="2.5" transform="rotate(132.678 79.0073 94.9315)" fill="#D9D9D9" fill-opacity="0.7"/>
<circle cx="124.511" cy="61.8484" r="2.5" transform="rotate(132.678 124.511 61.8484)" fill="#D9D9D9" fill-opacity="0.7"/>
<circle cx="113.484" cy="51.6803" r="2.5" transform="rotate(132.678 113.484 51.6803)" fill="#D9D9D9" fill-opacity="0.7"/>
<circle cx="102.456" cy="41.5122" r="2.5" transform="rotate(132.678 102.456 41.5122)" fill="#D9D9D9" fill-opacity="0.7"/>
<circle cx="91.4284" cy="31.3441" r="2.5" transform="rotate(132.678 91.4284 31.3441)" fill="#D9D9D9" fill-opacity="0.7"/>
<circle cx="114.343" cy="72.8761" r="2.5" transform="rotate(132.678 114.343 72.8761)" fill="#D9D9D9" fill-opacity="0.7"/>
<circle cx="104.175" cy="83.9038" r="2.5" transform="rotate(132.678 104.175 83.9038)" fill="#D9D9D9" fill-opacity="0.7"/>
<circle cx="94.0073" cy="94.9315" r="2.5" transform="rotate(132.678 94.0073 94.9315)" fill="#D9D9D9" fill-opacity="0.7"/>
</svg>
