<svg width="32" height="32" viewBox="0 0 32 32" fill="none" xmlns="http://www.w3.org/2000/svg">
<rect x="0.5" y="0.5" width="31" height="31" stroke="white"/>
<circle cx="16" cy="16" r="10" fill="white"/>
<path d="M11.2559 23C10.9141 23 10.7432 22.812 10.7432 22.436V8.85986C10.7432 8.48389 10.9141 8.2959 11.2559 8.2959H20.228C20.604 8.2959 20.792 8.44971 20.792 8.75732V9.51611C20.792 9.82373 20.604 9.97754 20.228 9.97754H12.7119V14.5303H19.6128C19.9888 14.5303 20.1768 14.6841 20.1768 14.9917V15.7505C20.1768 16.0581 19.9888 16.2119 19.6128 16.2119H12.7119V21.3184H20.5356C20.9116 21.3184 21.0996 21.4722 21.0996 21.7798V22.5386C21.0996 22.8462 20.9116 23 20.5356 23H11.2559Z" fill="black"/>
</svg>
