<svg width="24" height="24" viewBox="0 0 24 24" fill="none" xmlns="http://www.w3.org/2000/svg">
<path d="M8.92126 17.3027C8.92126 17.3777 8.83501 17.4377 8.72626 17.4377C8.60251 17.4489 8.51626 17.3889 8.51626 17.3027C8.51626 17.2277 8.60251 17.1677 8.71126 17.1677C8.82376 17.1564 8.92126 17.2164 8.92126 17.3027ZM7.75501 17.1339C7.72876 17.2089 7.80376 17.2952 7.91626 17.3177C8.01376 17.3552 8.12626 17.3177 8.14876 17.2427C8.17126 17.1677 8.10001 17.0814 7.98751 17.0477C7.89001 17.0214 7.78126 17.0589 7.75501 17.1339ZM9.41251 17.0702C9.30376 17.0964 9.22876 17.1677 9.24001 17.2539C9.25126 17.3289 9.34876 17.3777 9.46126 17.3514C9.57001 17.3252 9.64501 17.2539 9.63376 17.1789C9.62251 17.1077 9.52126 17.0589 9.41251 17.0702ZM11.88 2.7002C6.67876 2.7002 2.70001 6.64895 2.70001 11.8502C2.70001 16.0089 5.31751 19.5677 9.05626 20.8202C9.53626 20.9064 9.70501 20.6102 9.70501 20.3664C9.70501 20.1339 9.69376 18.8514 9.69376 18.0639C9.69376 18.0639 7.06876 18.6264 6.51751 16.9464C6.51751 16.9464 6.09001 15.8552 5.47501 15.5739C5.47501 15.5739 4.61626 14.9852 5.53501 14.9964C5.53501 14.9964 6.46876 15.0714 6.98251 15.9639C7.80376 17.4114 9.18001 16.9952 9.71626 16.7477C9.80251 16.1477 10.0463 15.7314 10.3163 15.4839C8.22001 15.2514 6.10501 14.9477 6.10501 11.3402C6.10501 10.3089 6.39001 9.79145 6.99001 9.13145C6.89251 8.8877 6.57376 7.8827 7.08751 6.5852C7.87126 6.34145 9.67501 7.5977 9.67501 7.5977C10.425 7.3877 11.2313 7.27895 12.03 7.27895C12.8288 7.27895 13.635 7.3877 14.385 7.5977C14.385 7.5977 16.1888 6.3377 16.9725 6.5852C17.4863 7.88645 17.1675 8.8877 17.07 9.13145C17.67 9.7952 18.0375 10.3127 18.0375 11.3402C18.0375 14.9589 15.8288 15.2477 13.7325 15.4839C14.0775 15.7802 14.37 16.3427 14.37 17.2239C14.37 18.4877 14.3588 20.0514 14.3588 20.3589C14.3588 20.6027 14.5313 20.8989 15.0075 20.8127C18.7575 19.5677 21.3 16.0089 21.3 11.8502C21.3 6.64895 17.0813 2.7002 11.88 2.7002ZM6.34501 15.6339C6.29626 15.6714 6.30751 15.7577 6.37126 15.8289C6.43126 15.8889 6.51751 15.9152 6.56626 15.8664C6.61501 15.8289 6.60376 15.7427 6.54001 15.6714C6.48001 15.6114 6.39376 15.5852 6.34501 15.6339ZM5.94001 15.3302C5.91376 15.3789 5.95126 15.4389 6.02626 15.4764C6.08626 15.5139 6.16126 15.5027 6.18751 15.4502C6.21376 15.4014 6.17626 15.3414 6.10126 15.3039C6.02626 15.2814 5.96626 15.2927 5.94001 15.3302ZM7.15501 16.6652C7.09501 16.7139 7.11751 16.8264 7.20376 16.8977C7.29001 16.9839 7.39876 16.9952 7.44751 16.9352C7.49626 16.8864 7.47376 16.7739 7.39876 16.7027C7.31626 16.6164 7.20376 16.6052 7.15501 16.6652ZM6.72751 16.1139C6.66751 16.1514 6.66751 16.2489 6.72751 16.3352C6.78751 16.4214 6.88876 16.4589 6.93751 16.4214C6.99751 16.3727 6.99751 16.2752 6.93751 16.1889C6.88501 16.1027 6.78751 16.0652 6.72751 16.1139Z" fill="white" fill-opacity="0.5"/>
</svg>
