<svg width="195" height="46" viewBox="0 0 195 46" fill="none" xmlns="http://www.w3.org/2000/svg">
<g clip-path="url(#clip0_3_8)">
<path d="M1.57293 45.5787C0.524311 45.5787 0 44.9961 0 43.8306V1.74814C0 0.582713 0.524311 0 1.57293 0H29.0992C30.2527 0 30.8295 0.476765 30.8295 1.4303V3.78234C30.8295 4.73587 30.2527 5.21263 29.0992 5.21263H6.04006V19.3249H27.2117C28.3652 19.3249 28.9419 19.8016 28.9419 20.7552V23.1072C28.9419 24.0608 28.3652 24.5375 27.2117 24.5375H6.04006V40.3661H30.043C31.1965 40.3661 31.7732 40.8429 31.7732 41.7964V44.1485C31.7732 45.102 31.1965 45.5787 30.043 45.5787H1.57293ZM41.5254 45.5787C40.4768 45.5787 39.9525 44.9961 39.9525 43.8306V1.74814C39.9525 0.582713 40.4768 0 41.5254 0H44.4196C45.4682 0 45.9925 0.582713 45.9925 1.74814V40.3661H66.8496C68.0031 40.3661 68.5799 40.8429 68.5799 41.7964V44.1485C68.5799 45.102 68.0031 45.5787 66.8496 45.5787H41.5254ZM65.5913 5.46691C64.4378 5.46691 63.861 4.99014 63.861 4.03661V1.4303C63.861 0.476765 64.4378 0 65.5913 0H98.8745C100.028 0 100.605 0.476765 100.605 1.4303V4.03661C100.605 4.99014 100.028 5.46691 98.8745 5.46691H85.253V43.8306C85.253 44.9961 84.7286 45.5787 83.68 45.5787H80.7858C79.7372 45.5787 79.2129 44.9961 79.2129 43.8306V5.46691H65.5913ZM99.0316 45.5787C97.9415 45.5787 97.6581 44.8795 98.1821 43.481L113.849 1.93885C114.331 0.646282 115.023 0 115.925 0H120.33C121.231 0 121.923 0.646282 122.406 1.93885L138.072 43.481C138.596 44.8795 138.313 45.5787 137.222 45.5787H134.014C132.902 45.5787 132.147 45.0596 131.749 44.0213L127.817 33.5007H108.438L104.505 44.0213C104.107 45.0596 103.352 45.5787 102.241 45.5787H99.0316ZM110.42 28.2881H125.834L121.021 15.5743C120.581 14.3877 120.141 13.074 119.7 11.6331C119.281 10.1922 118.777 8.14739 118.19 5.49869H118.064C117.477 8.14739 116.963 10.1922 116.523 11.6331C116.103 13.074 115.674 14.3877 115.233 15.5743L110.42 28.2881ZM145.654 45.5787C144.605 45.5787 144.081 44.9961 144.081 43.8306V1.74814C144.081 0.582713 144.605 0 145.654 0H148.548C149.597 0 150.121 0.582713 150.121 1.74814V43.8306C150.121 44.9961 149.597 45.5787 148.548 45.5787H145.654ZM162.389 45.5787C161.341 45.5787 160.817 44.9961 160.817 43.8306V1.74814C160.817 0.582713 161.341 0 162.389 0H174.658C181.789 0 186.592 1.16542 189.067 3.49628C191.542 5.82713 192.779 8.63475 192.779 11.9191C192.779 14.5254 191.751 16.7397 189.695 18.562C187.641 20.3632 185.648 21.4226 183.718 21.7405V21.8359C185.837 22.0265 188.196 23.0966 190.797 25.046C193.419 26.9743 194.729 29.6018 194.729 32.9286C194.729 36.5308 193.407 39.5397 190.765 41.9553C188.144 44.3709 183.299 45.5787 176.231 45.5787H162.389ZM166.856 40.3661H175.224C179.734 40.3661 183.037 39.8046 185.134 38.6816C187.232 37.5585 188.28 35.5773 188.28 32.7379C188.28 30.1104 187.21 28.0761 185.071 26.6353C182.953 25.1944 179.671 24.4739 175.224 24.4739H166.856V40.3661ZM166.856 19.897H174.753C178.255 19.897 181.108 19.1448 183.309 17.6403C185.533 16.1147 186.644 14.2076 186.644 11.9191C186.644 9.73664 185.816 8.07323 184.159 6.92899C182.502 5.78475 179.366 5.21263 174.753 5.21263H166.856V19.897Z" fill="#E7E9EA"/>
</g>
<defs>
<clipPath id="clip0_3_8">
<rect width="195" height="46" fill="white"/>
</clipPath>
</defs>
</svg>
