<svg width="115" height="34" viewBox="0 0 115 34" fill="none" xmlns="http://www.w3.org/2000/svg">
<path d="M0 4.33838H3.74706L12.4021 16.9219V4.33838H16.4119V24.7775H12.9566L4.01135 11.783V24.7775H0V4.33838Z" fill="#8B8B8B"/>
<path d="M27.0984 4.19165H30.8454L38.7611 24.7779H34.513L32.8235 20.1934H25.0149L23.3254 24.7779H19.1827L27.0984 4.19165ZM31.3724 16.2226L28.9192 9.59434L26.466 16.2226H31.3724Z" fill="#8B8B8B"/>
<path d="M41.5322 4.33838H49.9748C52.3243 4.33838 54.1435 5.06866 55.3579 6.41081C56.3875 7.55021 56.9404 9.15612 56.9404 11.1406C56.9404 14.4404 55.332 16.5146 52.9825 17.4782L57.4949 24.7775H52.7458L48.7345 18.2372H45.5954V24.7775H41.5322V4.33838ZM49.7106 14.2663C51.6903 14.2663 52.8253 13.0982 52.8253 11.3165C52.8253 9.38938 51.6108 8.39713 49.6327 8.39713H45.5954V14.2663H49.7106Z" fill="#8B8B8B"/>
<path d="M65.5696 14.3833L56.874 0H61.6231L68.0228 10.9669L71.9287 4.33867H76.5449L70.3722 14.324L82.356 33.9306H77.6069L67.9174 17.7691L63.7487 24.7777H59.131L65.5696 14.3833Z" fill="#8B8B8B"/>
<path d="M77.6279 14.5572C77.6279 8.74715 81.7706 3.98682 87.4699 3.98682C93.1691 3.98682 97.2583 8.68794 97.2583 14.5572C97.2583 20.3689 93.1156 25.1275 87.4164 25.1275C81.7171 25.1275 77.6279 20.4264 77.6279 14.5572ZM93.0102 14.5572C93.0102 11.0546 90.6883 8.13349 87.4164 8.13349C84.1444 8.13349 81.876 10.9954 81.876 14.5572C81.876 18.0615 84.1979 20.9808 87.4699 20.9808C90.7419 20.9808 93.0102 18.1207 93.0102 14.5572Z" fill="#8B8B8B"/>
<path d="M99.3177 21.3611L109.476 8.2805H99.6339V4.33838H114.7V7.75476L104.542 20.8353H114.7V24.7775H99.3177V21.3611Z" fill="#8B8B8B"/>
<path d="M0 31.0077V27.1858H1.05553V30.961C1.05553 32.1937 1.62951 32.8576 2.57154 32.8576C3.50709 32.8576 4.08107 32.2314 4.08107 31.0077V27.1858H5.13498V30.9503C5.13498 32.933 4.12323 33.9306 2.55533 33.9306C0.99554 33.9306 0 32.933 0 31.0077Z" fill="#8B8B8B"/>
<path d="M8.59805 27.1855H9.57414L12.7894 31.7754V27.1855H13.8271V33.8245H12.9434L9.63575 29.1019V33.8245H8.59805V27.1855Z" fill="#8B8B8B"/>
<path d="M17.4429 27.1855H18.4985V33.8245H17.4429V27.1855Z" fill="#8B8B8B"/>
<path d="M21.6004 27.1855H22.7662L24.5757 32.2886L26.3754 27.1855H27.5153L25.0216 33.873H24.0957L21.6004 27.1855Z" fill="#8B8B8B"/>
<path d="M30.5585 27.1855H35.006V28.228H31.6124V29.9542H34.6218V30.9985H31.6124V32.782H35.0498V33.8245H30.5585V27.1855Z" fill="#8B8B8B"/>
<path d="M38.3153 27.1855H40.989C42.3964 27.1855 43.2184 28.0199 43.2184 29.301C43.2184 30.392 42.6266 31.0451 41.7867 31.3107L43.4065 33.8245H42.1645L40.6728 31.5098H39.3692V33.8245H38.3153V27.1855ZM40.9128 30.4763C41.6667 30.4763 42.1467 30.0403 42.1467 29.3477C42.1467 28.6354 41.6846 28.2478 40.9047 28.2478H39.3692V30.4763H40.9128Z" fill="#8B8B8B"/>
<path d="M46.1241 32.8575L46.7581 32.0232C47.3321 32.574 47.906 32.8862 48.6535 32.8862C49.3037 32.8862 49.7155 32.5543 49.7155 32.0321C49.7155 31.5584 49.4756 31.3018 48.3616 31.0076C47.084 30.6756 46.3641 30.2593 46.3641 29.0159C46.3641 27.8783 47.2218 27.0906 48.4119 27.0906C49.2875 27.0906 49.9814 27.3848 50.5895 27.9249L50.0236 28.8077C49.4837 28.361 48.9437 28.1241 48.3957 28.1241C47.7779 28.1241 47.418 28.4758 47.418 28.9298C47.418 29.4429 47.692 29.6708 48.8416 29.974C50.1095 30.315 50.7694 30.8192 50.7694 31.937C50.7694 33.1805 49.8874 33.9198 48.6276 33.9198C47.7098 33.9198 46.844 33.5699 46.1241 32.8575Z" fill="#8B8B8B"/>
<path d="M54.0869 27.1855H55.1408V33.8245H54.0869V27.1855Z" fill="#8B8B8B"/>
<path d="M60.2319 28.2657H58.33V27.1855H63.1991V28.2657H61.2955V33.8245H60.2319V28.2657Z" fill="#8B8B8B"/>
<path d="M68.0924 31.2066L65.709 27.1855H66.9526L68.6324 30.1264L70.33 27.1855H71.5379L69.1561 31.1779V33.8245H68.0924V31.2066Z" fill="#8B8B8B"/>
</svg>
