<svg width="601" height="324" viewBox="0 0 601 324" fill="none" xmlns="http://www.w3.org/2000/svg">
<g clip-path="url(#clip0_25_44)">
<path opacity="0.1" d="M601 207.961C601.007 216.763 599.796 225.523 597.401 233.994C595.087 242.159 591.682 249.976 587.278 257.234C587.278 283.529 569.511 306.255 543.721 317.067C532.945 321.539 521.385 323.823 509.715 323.785H114.09C92.9449 323.785 73.3493 318.085 57.2789 308.375C52.6796 305.609 48.3167 302.469 44.2344 298.986C26.3726 283.65 15.2982 262.456 15.2982 239.048C5.27354 223.626 -0.0419965 205.623 2.83317e-06 187.235C2.83317e-06 148.732 22.7949 115.624 55.4507 101.007C59.787 99.0672 64.2677 97.4669 68.8523 96.2206C70.4739 95.7798 72.113 95.3844 73.7696 95.0345C78.1857 94.0949 82.665 93.4809 87.1713 93.1975C88.7999 93.096 90.4372 93.0383 92.0833 93.0243H92.9869C94.8046 93.0243 96.6066 93.0873 98.398 93.1922L98.9864 92.195C99.7079 90.9914 100.447 89.8 101.203 88.6208C102.569 86.4724 104.002 84.3555 105.501 82.2701C107.07 80.0693 108.707 77.9034 110.413 75.7725L110.849 75.2477C111.815 74.044 112.803 72.8543 113.812 71.6787C116.964 68.0082 120.291 64.448 123.793 60.998C161.676 23.9016 221.025 0.0209961 287.745 0.0209961C339.66 0.0209961 387.114 14.4806 423.463 38.3717C437.234 30.5864 452.789 26.5014 468.612 26.5154C519.96 26.5154 561.599 68.6975 561.599 120.731C561.591 124.023 561.416 127.313 561.073 130.588C573.451 139.341 583.54 150.94 590.488 164.406C597.437 177.873 601.043 192.811 601 207.961Z" fill="#212930"/>
<path opacity="0.2" d="M123.804 60.9771V71.6577H113.822C116.95 67.9908 120.277 64.4306 123.804 60.9771Z" fill="#212930"/>
<path opacity="0.2" d="M142.123 58.2688H128.721V71.6577H142.123V58.2688Z" fill="#212930"/>
<path opacity="0.2" d="M160.437 58.2688H147.035V71.6577H160.437V58.2688Z" fill="#212930"/>
<path opacity="0.2" d="M178.755 58.2688H165.354V71.6577H178.755V58.2688Z" fill="#212930"/>
<path opacity="0.2" d="M197.069 58.2688H183.667V71.6577H197.069V58.2688Z" fill="#212930"/>
<path opacity="0.2" d="M215.388 58.2688H201.986V71.6577H215.388V58.2688Z" fill="#212930"/>
<path d="M233.707 58.2688H220.305V71.6577H233.707V58.2688Z" fill="#212930"/>
<path opacity="0.2" d="M252.021 58.2688H238.619V71.6577H252.021V58.2688Z" fill="#212930"/>
<path opacity="0.2" d="M270.34 58.2688H256.938V71.6577H270.34V58.2688Z" fill="#212930"/>
<path opacity="0.2" d="M288.653 58.2688H275.252V71.6577H288.653V58.2688Z" fill="#212930"/>
<path d="M306.972 58.2688H293.571V71.6577H306.972V58.2688Z" fill="#212930"/>
<path opacity="0.2" d="M325.291 58.2688H311.89V71.6577H325.291V58.2688Z" fill="#212930"/>
<path opacity="0.2" d="M343.605 58.2688H330.203V71.6577H343.605V58.2688Z" fill="#212930"/>
<path opacity="0.2" d="M361.924 58.2688H348.522V71.6577H361.924V58.2688Z" fill="#212930"/>
<path opacity="0.2" d="M380.243 58.2688H366.841V71.6577H380.243V58.2688Z" fill="#212930"/>
<path opacity="0.2" d="M398.556 58.2688H385.155V71.6577H398.556V58.2688Z" fill="#212930"/>
<path opacity="0.2" d="M416.875 58.2688H403.474V71.6577H416.875V58.2688Z" fill="#212930"/>
<path d="M435.189 58.2688H421.787V71.6577H435.189V58.2688Z" fill="#212930"/>
<path d="M453.508 58.2688H440.106V71.6577H453.508V58.2688Z" fill="#212930"/>
<path opacity="0.2" d="M471.827 58.2688H458.425V71.6577H471.827V58.2688Z" fill="#212930"/>
<path opacity="0.2" d="M490.141 58.2688H476.739V71.6577H490.141V58.2688Z" fill="#212930"/>
<path d="M508.46 58.2688H495.058V71.6577H508.46V58.2688Z" fill="#212930"/>
<path d="M526.773 58.2688H513.372V71.6577H526.773V58.2688Z" fill="#212930"/>
<path d="M105.49 82.2649V88.6156H101.193C102.559 86.4532 103.991 84.3363 105.49 82.2649Z" fill="#212930"/>
<path opacity="0.2" d="M123.804 75.2267H110.402V88.6156H123.804V75.2267Z" fill="#212930"/>
<path d="M142.123 75.2267H128.721V88.6156H142.123V75.2267Z" fill="#212930"/>
<path opacity="0.2" d="M160.437 75.2267H147.035V88.6156H160.437V75.2267Z" fill="#212930"/>
<path opacity="0.7" d="M178.755 75.2267H165.354V88.6156H178.755V75.2267Z" fill="#212930"/>
<path opacity="0.2" d="M197.069 75.2267H183.667V88.6156H197.069V75.2267Z" fill="#212930"/>
<path opacity="0.4" d="M215.388 75.2267H201.986V88.6156H215.388V75.2267Z" fill="#212930"/>
<path d="M233.707 75.2267H220.305V88.6156H233.707V75.2267Z" fill="#212930"/>
<path opacity="0.4" d="M252.021 75.2267H238.619V88.6156H252.021V75.2267Z" fill="#212930"/>
<path opacity="0.2" d="M270.34 75.2267H256.938V88.6156H270.34V75.2267Z" fill="#212930"/>
<path opacity="0.4" d="M288.653 75.2267H275.252V88.6156H288.653V75.2267Z" fill="#212930"/>
<path d="M306.972 75.2267H293.571V88.6156H306.972V75.2267Z" fill="#212930"/>
<path opacity="0.4" d="M325.291 75.2267H311.89V88.6156H325.291V75.2267Z" fill="#212930"/>
<path opacity="0.4" d="M343.605 75.2267H330.203V88.6156H343.605V75.2267Z" fill="#212930"/>
<path opacity="0.2" d="M361.924 75.2267H348.522V88.6156H361.924V75.2267Z" fill="#212930"/>
<path opacity="0.4" d="M380.243 75.2267H366.841V88.6156H380.243V75.2267Z" fill="#212930"/>
<path opacity="0.4" d="M398.556 75.2267H385.155V88.6156H398.556V75.2267Z" fill="#212930"/>
<path opacity="0.2" d="M416.875 75.2267H403.474V88.6156H416.875V75.2267Z" fill="#212930"/>
<path opacity="0.2" d="M435.189 75.2267H421.787V88.6156H435.189V75.2267Z" fill="#212930"/>
<path opacity="0.4" d="M453.508 75.2267H440.106V88.6156H453.508V75.2267Z" fill="#212930"/>
<path opacity="0.2" d="M471.827 75.2267H458.425V88.6156H471.827V75.2267Z" fill="#212930"/>
<path d="M490.141 75.2267H476.739V88.6156H490.141V75.2267Z" fill="#212930"/>
<path d="M508.46 75.2267H495.058V88.6156H508.46V75.2267Z" fill="#212930"/>
<path d="M526.773 75.2267H513.372V88.6156H526.773V75.2267Z" fill="#212930"/>
<path opacity="0.2" d="M68.8524 96.2206V105.579H55.4507V101.007C59.787 99.0671 64.2677 97.4668 68.8524 96.2206Z" fill="#212930"/>
<path opacity="0.2" d="M87.1713 93.1975V105.579H73.7696V95.0345L87.1713 93.1975Z" fill="#212930"/>
<path d="M105.485 92.1898H92.0833V105.579H105.485V92.1898Z" fill="#212930"/>
<path opacity="0.7" d="M123.804 92.1898H110.402V105.579H123.804V92.1898Z" fill="#212930"/>
<path d="M142.123 92.1898H128.721V105.579H142.123V92.1898Z" fill="#212930"/>
<path opacity="0.7" d="M160.437 92.1898H147.035V105.579H160.437V92.1898Z" fill="#212930"/>
<path opacity="0.7" d="M178.755 92.1898H165.354V105.579H178.755V92.1898Z" fill="#212930"/>
<path opacity="0.2" d="M197.069 92.1898H183.667V105.579H197.069V92.1898Z" fill="#212930"/>
<path opacity="0.4" d="M215.388 92.1898H201.986V105.579H215.388V92.1898Z" fill="#212930"/>
<path opacity="0.4" d="M233.707 92.1898H220.305V105.579H233.707V92.1898Z" fill="#212930"/>
<path d="M252.021 92.1898H238.619V105.579H252.021V92.1898Z" fill="#212930"/>
<path opacity="0.2" d="M270.34 92.1898H256.938V105.579H270.34V92.1898Z" fill="#212930"/>
<path opacity="0.4" d="M288.653 92.1898H275.252V105.579H288.653V92.1898Z" fill="#212930"/>
<path d="M306.972 92.1898H293.571V105.579H306.972V92.1898Z" fill="#212930"/>
<path opacity="0.2" d="M325.291 92.1898H311.89V105.579H325.291V92.1898Z" fill="#212930"/>
<path opacity="0.4" d="M343.605 92.1898H330.203V105.579H343.605V92.1898Z" fill="#212930"/>
<path opacity="0.2" d="M361.924 92.1898H348.522V105.579H361.924V92.1898Z" fill="#212930"/>
<path d="M380.243 92.1898H366.841V105.579H380.243V92.1898Z" fill="#212930"/>
<path opacity="0.2" d="M398.556 92.1898H385.155V105.579H398.556V92.1898Z" fill="#212930"/>
<path opacity="0.7" d="M416.875 92.1898H403.474V105.579H416.875V92.1898Z" fill="#212930"/>
<path opacity="0.7" d="M435.189 92.1898H421.787V105.579H435.189V92.1898Z" fill="#212930"/>
<path opacity="0.4" d="M453.508 92.1898H440.106V105.579H453.508V92.1898Z" fill="#212930"/>
<path opacity="0.2" d="M471.827 92.1898H458.425V105.579H471.827V92.1898Z" fill="#212930"/>
<path d="M490.141 92.1898H476.739V105.579H490.141V92.1898Z" fill="#212930"/>
<path d="M508.46 92.1898H495.058V105.579H508.46V92.1898Z" fill="#212930"/>
<path d="M526.773 92.1898H513.372V105.579H526.773V92.1898Z" fill="#212930"/>
<path opacity="0.2" d="M68.8524 109.148H55.4507V122.537H68.8524V109.148Z" fill="#212930"/>
<path opacity="0.2" d="M87.1713 109.148H73.7696V122.537H87.1713V109.148Z" fill="#212930"/>
<path opacity="0.2" d="M105.485 109.148H92.0833V122.537H105.485V109.148Z" fill="#212930"/>
<path opacity="0.2" d="M123.804 109.148H110.402V122.537H123.804V109.148Z" fill="#212930"/>
<path d="M142.123 109.148H128.721V122.537H142.123V109.148Z" fill="#212930"/>
<path opacity="0.7" d="M160.437 109.148H147.035V122.537H160.437V109.148Z" fill="#212930"/>
<path opacity="0.7" d="M178.755 109.148H165.354V122.537H178.755V109.148Z" fill="#212930"/>
<path opacity="0.2" d="M197.069 109.148H183.667V122.537H197.069V109.148Z" fill="#212930"/>
<path opacity="0.2" d="M215.388 109.148H201.986V122.537H215.388V109.148Z" fill="#212930"/>
<path opacity="0.4" d="M233.707 109.148H220.305V122.537H233.707V109.148Z" fill="#212930"/>
<path opacity="0.4" d="M252.021 109.148H238.619V122.537H252.021V109.148Z" fill="#212930"/>
<path d="M270.34 109.148H256.938V122.537H270.34V109.148Z" fill="#212930"/>
<path opacity="0.2" d="M288.653 109.148H275.252V122.537H288.653V109.148Z" fill="#212930"/>
<path opacity="0.4" d="M306.972 109.148H293.571V122.537H306.972V109.148Z" fill="#212930"/>
<path opacity="0.4" d="M325.291 109.148H311.89V122.537H325.291V109.148Z" fill="#212930"/>
<path opacity="0.4" d="M343.605 109.148H330.203V122.537H343.605V109.148Z" fill="#212930"/>
<path opacity="0.4" d="M361.924 109.148H348.522V122.537H361.924V109.148Z" fill="#212930"/>
<path opacity="0.2" d="M380.243 109.148H366.841V122.537H380.243V109.148Z" fill="#212930"/>
<path opacity="0.2" d="M398.556 109.148H385.155V122.537H398.556V109.148Z" fill="#212930"/>
<path opacity="0.2" d="M416.875 109.148H403.474V122.537H416.875V109.148Z" fill="#212930"/>
<path opacity="0.2" d="M435.189 109.148H421.787V122.537H435.189V109.148Z" fill="#212930"/>
<path opacity="0.7" d="M453.508 109.148H440.106V122.537H453.508V109.148Z" fill="#212930"/>
<path opacity="0.7" d="M471.827 109.148H458.425V122.537H471.827V109.148Z" fill="#212930"/>
<path opacity="0.4" d="M490.141 109.148H476.739V122.537H490.141V109.148Z" fill="#212930"/>
<path opacity="0.2" d="M508.46 109.148H495.058V122.537H508.46V109.148Z" fill="#212930"/>
<path d="M526.773 109.148H513.372V122.537H526.773V109.148Z" fill="#212930"/>
<path opacity="0.2" d="M68.8524 126.111H55.4507V139.5H68.8524V126.111Z" fill="#212930"/>
<path opacity="0.2" d="M87.1713 126.111H73.7696V139.5H87.1713V126.111Z" fill="#212930"/>
<path opacity="0.4" d="M105.485 126.111H92.0833V139.5H105.485V126.111Z" fill="#212930"/>
<path opacity="0.2" d="M123.804 126.111H110.402V139.5H123.804V126.111Z" fill="#212930"/>
<path opacity="0.2" d="M142.123 126.111H128.721V139.5H142.123V126.111Z" fill="#212930"/>
<path opacity="0.7" d="M160.437 126.111H147.035V139.5H160.437V126.111Z" fill="#212930"/>
<path opacity="0.7" d="M178.755 126.111H165.354V139.5H178.755V126.111Z" fill="#212930"/>
<path opacity="0.2" d="M197.069 126.111H183.667V139.5H197.069V126.111Z" fill="#212930"/>
<path opacity="0.2" d="M215.388 126.111H201.986V139.5H215.388V126.111Z" fill="#212930"/>
<path opacity="0.4" d="M233.707 126.111H220.305V139.5H233.707V126.111Z" fill="#212930"/>
<path d="M252.021 126.111H238.619V139.5H252.021V126.111Z" fill="#212930"/>
<path opacity="0.2" d="M270.34 126.111H256.938V139.5H270.34V126.111Z" fill="#212930"/>
<path d="M288.653 126.111H275.252V139.5H288.653V126.111Z" fill="#212930"/>
<path d="M306.972 126.111H293.571V139.5H306.972V126.111Z" fill="#212930"/>
<path d="M325.291 126.111H311.89V139.5H325.291V126.111Z" fill="#212930"/>
<path opacity="0.2" d="M343.605 126.111H330.203V139.5H343.605V126.111Z" fill="#212930"/>
<path d="M361.924 126.111H348.522V139.5H361.924V126.111Z" fill="#212930"/>
<path opacity="0.2" d="M380.243 126.111H366.841V139.5H380.243V126.111Z" fill="#212930"/>
<path opacity="0.2" d="M398.556 126.111H385.155V139.5H398.556V126.111Z" fill="#212930"/>
<path opacity="0.2" d="M416.875 126.111H403.474V139.5H416.875V126.111Z" fill="#212930"/>
<path opacity="0.2" d="M435.189 126.111H421.787V139.5H435.189V126.111Z" fill="#212930"/>
<path opacity="0.2" d="M453.508 126.111H440.106V139.5H453.508V126.111Z" fill="#212930"/>
<path opacity="0.7" d="M471.827 126.111H458.425V139.5H471.827V126.111Z" fill="#212930"/>
<path opacity="0.2" d="M490.141 126.111H476.739V139.5H490.141V126.111Z" fill="#212930"/>
<path opacity="0.2" d="M508.46 126.111H495.058V139.5H508.46V126.111Z" fill="#212930"/>
<path d="M526.773 126.111H513.372V139.5H526.773V126.111Z" fill="#212930"/>
<path opacity="0.2" d="M68.8524 143.069H55.4507V156.458H68.8524V143.069Z" fill="#212930"/>
<path opacity="0.2" d="M87.1713 143.069H73.7696V156.458H87.1713V143.069Z" fill="#212930"/>
<path opacity="0.2" d="M105.485 143.069H92.0833V156.458H105.485V143.069Z" fill="#212930"/>
<path opacity="0.4" d="M123.804 143.069H110.402V156.458H123.804V143.069Z" fill="#212930"/>
<path opacity="0.2" d="M142.123 143.069H128.721V156.458H142.123V143.069Z" fill="#212930"/>
<path opacity="0.2" d="M160.437 143.069H147.035V156.458H160.437V143.069Z" fill="#212930"/>
<path opacity="0.7" d="M178.755 143.069H165.354V156.458H178.755V143.069Z" fill="#212930"/>
<path opacity="0.2" d="M197.069 143.069H183.667V156.458H197.069V143.069Z" fill="#212930"/>
<path opacity="0.2" d="M215.388 143.069H201.986V156.458H215.388V143.069Z" fill="#212930"/>
<path opacity="0.2" d="M233.707 143.069H220.305V156.458H233.707V143.069Z" fill="#212930"/>
<path d="M252.021 143.069H238.619V156.458H252.021V143.069Z" fill="#212930"/>
<path opacity="0.2" d="M270.34 143.069H256.938V156.458H270.34V143.069Z" fill="#212930"/>
<path d="M288.653 143.069H275.252V156.458H288.653V143.069Z" fill="#212930"/>
<path d="M306.972 143.069H293.571V156.458H306.972V143.069Z" fill="#212930"/>
<path opacity="0.2" d="M325.291 143.069H311.89V156.458H325.291V143.069Z" fill="#212930"/>
<path opacity="0.2" d="M343.605 143.069H330.203V156.458H343.605V143.069Z" fill="#212930"/>
<path opacity="0.2" d="M361.924 143.069H348.522V156.458H361.924V143.069Z" fill="#212930"/>
<path opacity="0.2" d="M380.243 143.069H366.841V156.458H380.243V143.069Z" fill="#212930"/>
<path opacity="0.2" d="M398.556 143.069H385.155V156.458H398.556V143.069Z" fill="#212930"/>
<path opacity="0.2" d="M416.875 143.069H403.474V156.458H416.875V143.069Z" fill="#212930"/>
<path opacity="0.2" d="M435.189 143.069H421.787V156.458H435.189V143.069Z" fill="#212930"/>
<path opacity="0.2" d="M453.508 143.069H440.106V156.458H453.508V143.069Z" fill="#212930"/>
<path opacity="0.2" d="M471.827 143.069H458.425V156.458H471.827V143.069Z" fill="#212930"/>
<path opacity="0.2" d="M490.141 143.069H476.739V156.458H490.141V143.069Z" fill="#212930"/>
<path opacity="0.4" d="M508.46 143.069H495.058V156.458H508.46V143.069Z" fill="#212930"/>
<path d="M526.773 143.069H513.372V156.458H526.773V143.069Z" fill="#212930"/>
<path opacity="0.7" d="M68.8524 160.032H55.4507V173.421H68.8524V160.032Z" fill="#212930"/>
<path opacity="0.7" d="M87.1713 160.032H73.7696V173.421H87.1713V160.032Z" fill="#212930"/>
<path opacity="0.7" d="M105.485 160.032H92.0833V173.421H105.485V160.032Z" fill="#212930"/>
<path opacity="0.7" d="M123.804 160.032H110.402V173.421H123.804V160.032Z" fill="#212930"/>
<path opacity="0.7" d="M142.123 160.032H128.721V173.421H142.123V160.032Z" fill="#212930"/>
<path opacity="0.2" d="M160.437 160.032H147.035V173.421H160.437V160.032Z" fill="#212930"/>
<path opacity="0.2" d="M178.755 160.032H165.354V173.421H178.755V160.032Z" fill="#212930"/>
<path opacity="0.2" d="M197.069 160.032H183.667V173.421H197.069V160.032Z" fill="#212930"/>
<path opacity="0.2" d="M215.388 160.032H201.986V173.421H215.388V160.032Z" fill="#212930"/>
<path opacity="0.2" d="M233.707 160.032H220.305V173.421H233.707V160.032Z" fill="#212930"/>
<path opacity="0.2" d="M252.021 160.032H238.619V173.421H252.021V160.032Z" fill="#212930"/>
<path d="M270.34 160.032H256.938V173.421H270.34V160.032Z" fill="#212930"/>
<path opacity="0.2" d="M288.653 160.032H275.252V173.421H288.653V160.032Z" fill="#212930"/>
<path opacity="0.2" d="M306.972 160.032H293.571V173.421H306.972V160.032Z" fill="#212930"/>
<path opacity="0.2" d="M325.291 160.032H311.89V173.421H325.291V160.032Z" fill="#212930"/>
<path d="M343.605 160.032H330.203V173.421H343.605V160.032Z" fill="#212930"/>
<path opacity="0.2" d="M361.924 160.032H348.522V173.421H361.924V160.032Z" fill="#212930"/>
<path opacity="0.2" d="M380.243 160.032H366.841V173.421H380.243V160.032Z" fill="#212930"/>
<path opacity="0.2" d="M398.556 160.032H385.155V173.421H398.556V160.032Z" fill="#212930"/>
<path opacity="0.2" d="M416.875 160.032H403.474V173.421H416.875V160.032Z" fill="#212930"/>
<path opacity="0.2" d="M435.189 160.032H421.787V173.421H435.189V160.032Z" fill="#212930"/>
<path opacity="0.2" d="M453.508 160.032H440.106V173.421H453.508V160.032Z" fill="#212930"/>
<path opacity="0.2" d="M471.827 160.032H458.425V173.421H471.827V160.032Z" fill="#212930"/>
<path opacity="0.2" d="M490.141 160.032H476.739V173.421H490.141V160.032Z" fill="#212930"/>
<path opacity="0.2" d="M508.46 160.032H495.058V173.421H508.46V160.032Z" fill="#212930"/>
<path d="M526.773 160.032H513.372V173.421H526.773V160.032Z" fill="#212930"/>
<path d="M385.88 209.289C395.997 209.289 404.199 201.095 404.199 190.987C404.199 180.88 395.997 172.686 385.88 172.686C375.763 172.686 367.561 180.88 367.561 190.987C367.561 201.095 375.763 209.289 385.88 209.289Z" fill="#212930"/>
<path d="M384.929 167.705C386.757 175.676 388.309 183.706 389.584 191.796C389.967 194.2 390.308 196.735 389.436 199.007C388.706 200.902 387.219 202.382 386.053 204.04C384.887 205.699 384.004 207.825 384.714 209.725C385.423 211.625 387.493 212.664 389.468 213.199C395.121 214.721 401.146 213.614 406.773 211.966C409.32 211.31 411.763 210.3 414.028 208.964C416.413 207.452 418.367 205.353 420.164 203.19C428.365 193.255 433.734 181.33 438.788 169.479C435.54 169.774 432.269 169.293 429.245 168.076C426.22 166.859 423.529 164.94 421.393 162.478C419.324 160.048 417.805 156.662 418.972 153.692C415.552 155.565 411.491 155.691 407.808 156.972C405.524 157.843 403.326 158.924 401.241 160.2C398.726 161.652 396.226 163.132 393.739 164.64C390.897 166.351 388.233 167.873 384.929 167.705Z" fill="#908183"/>
<path d="M423.243 181.446C420.033 187.686 415.856 193.685 409.894 197.401C403.931 201.117 395.903 202.125 389.93 198.451C386.988 196.656 384.761 193.927 382.192 191.628C379.623 189.329 376.413 187.361 372.961 187.66C369.158 187.99 366.179 190.956 363.631 193.795C359.765 198.11 356.029 202.608 353.292 207.714C348.039 217.529 346.794 229.002 347.025 240.129C347.256 251.256 348.869 262.325 348.906 273.452C348.958 287.14 346.636 300.718 344.288 314.201C365.88 311.545 387.498 317.35 409.137 319.549C422.985 320.972 436.939 320.94 450.86 320.903C453.308 320.903 455.914 320.84 457.953 319.486C459.198 318.578 460.206 317.383 460.889 316.001C462.812 312.458 463.584 308.417 464.12 304.423C465.481 294.335 465.523 284.122 465.56 273.94C465.654 249.272 465.743 224.515 462.607 200.041C461.835 194.021 460.847 187.969 458.536 182.338C456.224 176.706 452.452 171.526 447.178 168.508C443.789 166.566 435.935 163.186 431.942 165.144C427.461 167.327 425.391 177.268 423.243 181.446Z" fill="#212930"/>
<path d="M424.84 251.104C424.025 235.883 420.71 219.639 427.766 206.129C429.5 202.812 423.279 198.671 425.202 195.459C427.549 191.543 429.328 187.314 430.487 182.899C430.886 181.383 431.207 179.777 430.829 178.255C430.13 175.478 427.382 173.825 425.05 172.135C422.476 170.266 421.152 164.572 420.322 161.491C419.492 158.41 426.925 162.121 429.915 161.024C434.065 159.507 439.339 160.462 443.479 162C445.791 162.85 448.302 162.924 450.766 162.987C455.552 163.113 460.353 163.233 465.102 162.646C467.235 162.378 469.374 161.974 471.517 162.094C476.986 162.404 481.74 166.141 484.976 170.56C488.213 174.979 490.272 180.128 492.925 184.915C495.137 188.904 497.774 192.672 499.66 196.824C501.331 200.498 502.387 204.444 503.432 208.37L506.127 218.442C506.598 219.883 506.822 221.393 506.789 222.909C506.652 224.52 505.938 226.021 505.213 227.454C502.471 232.765 499.184 237.776 495.405 242.407C489.736 249.351 482.854 255.612 479.487 263.926C478.173 267.164 477.443 270.607 476.776 274.04C474.086 287.768 472.174 301.637 471.049 315.581C464.911 312.743 458.476 310.594 451.864 309.173C448.567 308.468 445.235 307.943 441.882 307.598C438.945 307.294 435.158 307.871 432.363 307.074C427.687 305.746 427.172 297.847 426.463 293.711C425.328 287.124 425.102 280.422 425.06 273.767C425.008 266.198 425.244 258.646 424.84 251.104Z" fill="#212930"/>
<path d="M322.16 222.641C324.372 235.238 326.809 247.871 331.616 259.706C331.496 259.821 331.375 259.926 331.254 260.031C330.828 260.394 330.387 260.735 329.925 261.081C328.848 261.837 327.666 262.477 326.773 263.464C326.434 263.842 326.168 264.277 325.985 264.75C325.82 265.119 325.734 265.519 325.734 265.923C325.734 266.327 325.82 266.727 325.985 267.096C323.479 268.203 320.568 267.862 317.758 267.757C315.336 267.668 312.987 267.757 311.044 269.085C308.343 270.943 307.529 274.512 307.093 277.756C306.932 278.938 306.794 280.123 306.678 281.309C306.566 282.411 306.475 283.517 306.405 284.626C306.167 288.295 306.133 291.975 306.305 295.648C306.333 296.319 306.37 296.991 306.415 297.663C297.831 297.458 290.009 292.987 282.607 288.641C280.915 287.649 279.171 286.605 278.073 284.967C277.061 283.359 276.633 281.452 276.859 279.566C276.859 279.299 276.906 279.041 276.943 278.769C277.179 277.211 277.582 275.684 278.146 274.213C280.462 267.948 283.876 262.146 288.228 257.077C290.109 254.883 292.226 252.736 293.103 249.981C293.487 248.779 293.628 247.503 294.017 246.307C295.761 241.121 302.055 238.67 304.209 233.637C304.734 232.435 304.976 231.117 305.627 229.963C306.214 229.003 306.97 228.158 307.86 227.47C308.244 227.15 308.643 226.84 309.037 226.53C312.728 223.64 316.285 220.587 319.707 217.372C320.344 216.773 320.975 216.168 321.598 215.556C321.515 217.931 321.703 220.308 322.16 222.641Z" fill="#212930"/>
<path d="M375.1 185.387C374.343 186.185 373.524 186.936 372.72 187.681L372.504 187.875L371.653 188.662C370.109 189.994 368.772 191.549 367.687 193.276L367.598 193.423C364.918 198.215 365.911 204.114 366.657 209.557C367.583 216.339 367.999 223.181 367.902 230.026C367.766 239.473 366.652 248.857 366.631 258.294C366.631 260.436 366.678 262.572 366.773 264.713C366.925 268.193 367.188 271.667 367.503 275.142C367.845 278.952 368.254 282.757 368.638 286.563C368.943 289.507 369.231 292.446 369.473 295.385C369.594 296.907 369.709 298.424 369.804 299.946C369.914 301.731 370.004 303.52 370.056 305.305C370.093 306.439 370.114 307.567 370.114 308.701C370.114 309.346 370.114 309.987 370.114 310.627C370.114 311.855 370.081 313.08 370.014 314.301C369.944 315.872 369.837 317.446 369.694 319.024C369.531 320.741 369.242 322.614 368.034 323.822C367.96 323.895 367.881 323.963 367.802 324.032L366.1 323.822C354.367 322.418 342.521 322.207 330.744 323.192C331.002 321.418 331.238 319.649 331.469 317.87C331.574 317.03 331.679 316.185 331.779 315.34C331.895 314.374 332.005 313.409 332.11 312.443C332.231 311.393 332.341 310.343 332.446 309.294C332.72 306.589 332.96 303.883 333.166 301.174C333.471 297.224 333.702 293.267 333.86 289.302C333.937 287.409 333.996 285.515 334.038 283.618C334.098 281.267 334.126 278.914 334.122 276.559C334.122 274.271 334.103 271.979 334.065 269.683C334.065 268.928 334.033 268.172 333.97 267.421C333.925 266.746 333.832 266.074 333.692 265.411C333.301 263.883 332.774 262.394 332.115 260.96C332 260.687 331.89 260.436 331.779 260.147C331.716 260.005 331.658 259.858 331.601 259.716C334.627 257.024 336.781 253.418 338.85 249.87C342.207 244.155 345.643 238.187 346.205 231.585C346.767 224.982 343.484 217.566 337.169 215.55C335.451 215.026 333.634 214.879 331.863 214.569C330.193 214.275 326.71 213.608 324.776 212.412C323.726 213.49 322.675 214.548 321.624 215.587C321.688 214.002 322.076 212.446 322.764 211.016L323.51 211.052C323.449 210.884 323.421 210.706 323.426 210.528C323.426 209.966 323.815 209.331 324.645 208.628C327.119 206.528 331.012 206.061 332.573 203.222C333.224 202.041 333.334 200.634 333.86 199.396C335.367 195.863 339.696 194.562 342.302 191.738C344.908 188.914 345.559 184.915 347.666 181.766C349.239 179.466 351.422 177.649 353.97 176.517C354.18 176.418 354.396 176.318 354.611 176.229C358.971 174.366 364.151 173.94 368.669 173.951C370.424 173.951 374.974 174.003 377.201 174.89C377.562 175.019 377.893 175.221 378.173 175.483C380.547 178.066 376.854 183.519 375.1 185.387Z" fill="#212930"/>
<path d="M322.943 210.648C327.001 209.428 331.262 209.025 335.477 209.464C339.693 209.903 343.779 211.174 347.498 213.204C351.28 215.304 354.674 218.232 356.754 222.011C359.88 227.68 359.744 234.513 359.523 240.985C359.413 244.223 359.271 247.577 357.842 250.484C356.187 253.849 353.066 256.158 349.883 258.047C347.888 259.319 345.703 260.263 343.411 260.845C339.88 261.611 336.213 260.96 332.657 260.32C328.79 259.606 324.64 258.745 321.955 255.869C320.379 254.2 319.518 252.033 318.667 249.912C317.444 246.851 316.218 243.792 314.989 240.738C312.861 235.432 312.142 231.018 314.952 225.848C316.229 223.491 317.789 221.287 319.05 218.915C319.681 217.707 321.94 210.958 322.943 210.648Z" fill="#212930"/>
<path d="M543.737 301.379V317.072C532.96 321.544 521.4 323.828 509.731 323.79H368.049C367.976 323.864 367.897 323.932 367.818 324L366.116 323.79H114.09C92.9449 323.79 73.3493 318.09 57.2789 308.38V284.421L178.488 270.444H178.582L249.168 276.417L267.434 277.992L276.922 278.795L296.56 280.458L306.662 281.314L321.372 282.563L323.442 282.736L334.044 283.634L348.428 284.815L368.654 286.526L402.371 289.386L426.09 291.396L465.04 294.698L472.447 295.322L473.246 295.39L473.939 295.448L483.721 296.277L494.459 297.191L495.704 297.296L543.737 301.379Z" fill="#121212"/>
<path d="M401.367 300.802L249.468 274.9L243.578 304.654L313.208 312.983L334.648 315.665L393.624 304.061L401.367 300.802Z" fill="#71767B"/>
<path d="M322.738 314.175L398.84 299.883C399.221 299.81 399.613 299.823 399.988 299.919C400.364 300.016 400.713 300.194 401.012 300.441C401.31 300.689 401.55 300.999 401.714 301.35C401.878 301.701 401.962 302.083 401.961 302.471C401.962 303.085 401.748 303.681 401.356 304.153C400.963 304.626 400.417 304.946 399.812 305.058L325.491 318.961L322.738 314.175Z" fill="#71767B"/>
<path d="M355.751 269.232C358.12 269.012 360.521 268.639 362.654 267.589C365.281 266.282 367.324 264.031 369.757 262.372C375.105 258.698 382.26 258.205 388.391 260.315C394.522 262.425 399.639 266.944 403.222 272.339C405.601 275.934 407.388 280.522 405.706 284.489C405.13 285.702 404.403 286.838 403.542 287.869L399.161 293.59C398.328 294.793 397.327 295.869 396.187 296.787C394.548 297.978 392.51 298.466 390.503 298.76C385.171 299.537 379.744 299.096 374.369 299.453C365.139 300.067 356.124 303.038 346.873 302.938C341.556 302.88 336.308 301.809 331.112 300.739L308.118 296.015C304.114 295.196 299.591 294 297.705 290.373C296.859 288.741 296.702 286.851 296.602 285.014C296.329 279.955 296.602 274.328 300.111 270.681C303.41 267.259 308.627 266.177 312.567 263.648C317.39 260.546 318.982 261.548 324.067 263.879C333.988 268.367 344.904 270.212 355.751 269.232Z" fill="#908183"/>
<path opacity="0.05" d="M355.751 269.232C358.12 269.012 360.521 268.639 362.654 267.589C365.281 266.282 367.324 264.031 369.757 262.372C375.105 258.698 382.26 258.205 388.391 260.315C394.522 262.425 399.639 266.944 403.222 272.339C405.601 275.934 407.388 280.522 405.706 284.489C405.13 285.702 404.403 286.838 403.542 287.869L399.161 293.59C398.328 294.793 397.327 295.869 396.187 296.787C394.548 297.978 392.51 298.466 390.503 298.76C385.171 299.537 379.744 299.096 374.369 299.453C365.139 300.067 356.124 303.038 346.873 302.938C341.556 302.88 336.308 301.809 331.112 300.739L308.118 296.015C304.114 295.196 299.591 294 297.705 290.373C296.859 288.741 296.702 286.851 296.602 285.014C296.329 279.955 296.602 274.328 300.111 270.681C303.41 267.259 308.627 266.177 312.567 263.648C317.39 260.546 318.982 261.548 324.067 263.879C333.988 268.367 344.904 270.212 355.751 269.232Z" fill="#121212"/>
<path d="M448.092 262.036C441.64 264.529 435.152 267.033 428.396 268.518C417.07 271.011 405.218 270.618 393.981 273.468C388.044 274.979 382.145 277.414 376.045 276.921C373.319 276.701 370.687 275.871 368.034 275.242C353.13 271.568 336.187 272.759 324.083 282.206C319.943 285.434 316.555 289.46 313.481 293.753C312.824 294.68 312.379 295.741 312.18 296.86C311.98 297.979 312.031 299.128 312.327 300.225C312.624 301.322 313.159 302.34 313.896 303.207C314.632 304.073 315.551 304.766 316.586 305.237C321.293 307.399 326.336 308.743 331.496 309.21C338.393 309.819 345.323 308.842 352.184 307.866C362.365 306.423 372.552 304.974 382.707 303.352C386.353 302.77 389.999 302.166 393.666 301.704C420.054 298.372 446.92 302.423 473.377 299.642C476.051 299.358 478.772 298.991 481.204 297.852C487.362 294.965 490.409 287.355 489.137 280.668C487.866 273.982 482.959 268.424 477.054 265.012C472.105 262.141 466.768 260.981 461.257 259.764C456.14 258.572 453.02 260.147 448.092 262.036Z" fill="#908183"/>
<path opacity="0.1" d="M504.688 222.064C507.598 225.874 508.218 230.986 507.903 235.757C507.588 240.528 506.453 245.246 506.285 250.038C506.054 256.609 507.64 263.159 507.372 269.71C507.183 274.292 506.096 278.784 504.808 283.182C503.29 288.373 501.094 293.952 496.298 296.445C489.931 299.757 476.576 297.894 469.878 300.487C470.487 296.692 476.329 291.197 476.939 287.402C477.359 284.778 477.784 282.08 477.333 279.451C476.755 276.097 474.785 273.121 472.447 270.644C468.727 266.702 463.873 263.737 458.541 262.771C453.209 261.805 440.154 262.598 435.888 265.962C435.362 262.488 445.134 259.139 448.57 258.389C450.282 258.005 452.247 258.221 453.618 257.134C456.245 255.077 454.338 250.978 454.464 247.687C454.564 245.063 456.098 242.659 456.408 240.035C456.933 235.836 454.191 231.558 455.268 227.438C455.667 225.916 456.555 224.578 457.17 223.129C459.04 218.694 458.22 213.635 457.222 208.922C456.602 205.961 455.998 202.623 457.648 200.099C459.177 197.742 463.516 206.135 466.295 205.746C475.473 204.46 483.779 197.664 491.191 203.227C494.969 206.061 495.462 209 496.97 213.047C498.436 216.899 502.234 218.873 504.688 222.064Z" fill="#121212"/>
<path d="M506.264 222.064C509.174 225.874 509.794 230.986 509.479 235.757C509.164 240.528 508.029 245.246 507.861 250.038C507.63 256.609 509.216 263.159 508.948 269.71C508.759 274.292 507.672 278.784 506.384 283.183C504.866 288.373 502.67 293.952 497.874 296.445C491.507 299.757 478.152 297.894 471.454 300.487C472.063 296.692 477.905 291.197 478.515 287.402C478.935 284.778 479.36 282.08 478.909 279.451C478.331 276.097 476.361 273.121 474.023 270.644C470.303 266.702 465.449 263.737 460.117 262.771C454.785 261.805 441.73 262.598 437.464 265.962C436.939 262.488 446.71 259.139 450.146 258.389C451.858 258.005 453.823 258.221 455.194 257.134C457.821 255.077 455.914 250.978 456.04 247.687C456.14 245.063 457.674 242.659 457.984 240.035C458.509 235.836 455.767 231.558 456.844 227.438C457.243 225.916 458.131 224.578 458.746 223.129C460.616 218.694 459.796 213.635 458.798 208.922C458.178 205.961 457.574 202.623 459.224 200.099C460.753 197.742 463.742 196.85 466.521 196.456C475.826 195.199 485.254 197.629 492.788 203.227C496.566 206.061 497.06 209 498.567 213.047C500.012 216.899 503.81 218.873 506.264 222.064Z" fill="#212930"/>
<path d="M158.656 197.196L187.219 302.66C187.569 303.952 188.306 305.107 189.33 305.97C190.354 306.834 191.617 307.365 192.95 307.494L321.514 319.833C322.562 319.934 323.619 319.782 324.596 319.391C325.573 319 326.442 318.381 327.13 317.585C327.819 316.79 328.306 315.841 328.552 314.818C328.798 313.796 328.795 312.729 328.543 311.708L297.264 184.495C296.892 182.983 295.995 181.652 294.733 180.738C293.471 179.824 291.925 179.387 290.371 179.504L164.503 188.909C163.536 188.984 162.598 189.271 161.756 189.75C160.913 190.229 160.187 190.887 159.628 191.679C159.07 192.471 158.693 193.375 158.525 194.329C158.357 195.283 158.401 196.262 158.656 197.196Z" fill="#71767B"/>
<path d="M413.508 217.776C421.313 217.776 427.64 211.372 427.64 203.474C427.64 195.575 421.313 189.171 413.508 189.171C405.703 189.171 399.376 195.575 399.376 203.474C399.376 211.372 405.703 217.776 413.508 217.776Z" fill="white"/>
<path d="M425.113 177.383C425.113 177.383 428.092 186.232 419.303 189.953L418.178 191.916L423.684 197.343C423.684 197.343 430.472 184.973 429.736 180.58C429.736 180.58 428.685 176.118 425.113 177.383Z" fill="white"/>
<path d="M415.131 217.776C422.658 217.776 428.759 211.68 428.759 204.161C428.759 196.642 422.658 190.547 415.131 190.547C407.605 190.547 401.504 196.642 401.504 204.161C401.504 211.68 407.605 217.776 415.131 217.776Z" fill="#212930"/>
<path d="M429.804 182.59L427.64 179.021L424.488 178.575C425.16 166.823 422.108 163.323 422.108 163.323L421.399 163.254L418.31 162.955L412.499 156.93V155.219C420.663 156.19 425.176 160.063 427.614 164.603C431.921 172.571 429.804 182.59 429.804 182.59Z" fill="#212930"/>
<path opacity="0.1" d="M421.425 161.092V163.254L418.336 162.955L412.526 156.93C412.526 156.93 421.514 158.94 421.425 161.092Z" fill="#121212" stroke="#212930" stroke-miterlimit="10"/>
<path opacity="0.1" d="M429.804 182.59L427.64 179.021V164.624C431.921 172.57 429.804 182.59 429.804 182.59Z" fill="#121212" stroke="#212930" stroke-miterlimit="10"/>
<path d="M389.949 209.758C393.575 207.666 393.419 200.615 389.601 194.008C385.783 187.401 379.748 183.74 376.122 185.831C372.496 187.923 372.652 194.974 376.471 201.581C380.289 208.188 386.324 211.849 389.949 209.758Z" fill="white"/>
<path d="M385.081 196.64C388.901 203.248 393.587 207.662 389.962 209.761C386.337 211.861 375.777 210.811 371.958 204.198C368.139 197.585 371.606 188.452 375.231 186.353C378.856 184.254 381.257 190.016 385.081 196.64Z" fill="#212930"/>
<path opacity="0.1" d="M419.087 149.036C419.087 170.151 404.624 190.499 383.489 190.499C373.339 190.499 363.605 186.471 356.427 179.301C349.25 172.13 345.218 162.405 345.218 152.264C345.218 142.123 349.25 132.398 356.427 125.228C363.605 118.057 373.339 114.029 383.489 114.029C404.624 114.05 419.087 127.916 419.087 149.036Z" fill="#121212"/>
<path d="M383.489 189.471C404.626 189.471 421.761 172.352 421.761 151.235C421.761 130.119 404.626 113 383.489 113C362.353 113 345.218 130.119 345.218 151.235C345.218 172.352 362.353 189.471 383.489 189.471Z" fill="#908183"/>
<path d="M380.127 134.293C384.682 135.967 387.377 140.67 391.464 143.289C397.243 146.963 404.766 146.013 411.365 144.197C415.042 143.195 418.888 141.972 422.507 143.084C423.04 143.32 423.627 143.403 424.204 143.326C424.992 143.1 425.381 142.229 425.638 141.452C430.114 128.121 428.102 113.021 421.346 100.687C419.602 97.5065 417.511 94.4308 414.632 92.2212C412.363 90.484 409.694 89.345 407.004 88.3741C402.089 86.6103 397.004 85.3563 391.832 84.6319C390.919 84.4661 389.986 84.436 389.063 84.5427C387.797 84.7474 386.663 85.4297 385.533 86.0385C380.696 88.6292 375.331 90.0849 369.846 90.295C362.491 90.5732 354.086 88.8412 348.417 93.5543C341.588 99.207 343.29 110.234 338.861 117.907C335.93 122.983 330.277 126.667 329.347 132.446C329.105 134.212 329.217 136.009 329.678 137.731C331.842 146.622 340.458 153.508 349.641 153.671C351.051 153.778 352.464 153.489 353.718 152.836C354.54 152.276 355.265 151.586 355.867 150.794C361.882 143.677 368.764 130.115 380.127 134.293Z" fill="#232B32"/>
<path opacity="0.1" d="M425.638 137.584C425.381 138.361 424.992 139.232 424.204 139.458C423.627 139.535 423.04 139.452 422.507 139.216C418.888 138.104 415.021 139.327 411.37 140.329C404.766 142.145 397.227 143.116 391.47 139.421C387.377 136.797 384.687 132.073 380.127 130.425C368.764 126.226 361.882 139.809 355.851 146.926C355.25 147.718 354.524 148.408 353.702 148.968C352.448 149.621 351.036 149.91 349.625 149.803C340.474 149.64 331.853 142.754 329.662 133.863C329.541 133.338 329.436 132.813 329.357 132.288C329.357 132.336 329.357 132.378 329.331 132.425C329.089 134.191 329.202 135.988 329.662 137.71C331.827 146.601 340.448 153.487 349.625 153.65C351.036 153.757 352.448 153.468 353.702 152.815C354.524 152.255 355.25 151.565 355.851 150.773C361.882 143.657 368.764 130.094 380.127 134.272C384.687 135.946 387.377 140.649 391.47 143.268C397.248 146.942 404.766 145.992 411.37 144.176C415.047 143.174 418.888 141.951 422.507 143.063C423.04 143.299 423.627 143.383 424.204 143.305C424.992 143.079 425.381 142.208 425.638 141.431C427.444 135.976 428.241 130.239 427.992 124.5C427.837 128.951 427.045 133.357 425.638 137.584Z" fill="#121212"/>
</g>
<defs>
<clipPath id="clip0_25_44">
<rect width="601" height="324" fill="white"/>
</clipPath>
</defs>
</svg>
