<svg width="176" height="163" viewBox="0 0 176 163" fill="none" xmlns="http://www.w3.org/2000/svg">
<path d="M80.3295 0C39.2469 0 41.8108 17.7755 41.8108 17.7755L41.8614 36.1918H81.0628V41.7167H26.2809C26.2809 41.7167 0 38.7398 0 80.1034C0 121.457 22.9434 119.994 22.9434 119.994H36.6376V100.8C36.6376 100.8 35.8992 77.9086 59.2168 77.9086H98.0946C98.0946 77.9086 119.941 78.2617 119.941 56.8433V21.4285C119.941 21.4285 123.258 0 80.3295 0ZM58.7111 12.3818C62.61 12.3818 65.7655 15.5303 65.7655 19.4204C65.7655 23.3105 62.61 26.4589 58.7111 26.4589C57.7843 26.4603 56.8664 26.2791 56.0099 25.9259C55.1534 25.5726 54.3752 25.0542 53.7199 24.4004C53.0646 23.7465 52.545 22.97 52.1909 22.1155C51.8369 21.2609 51.6553 20.3451 51.6567 19.4204C51.6567 15.5303 54.8122 12.3818 58.7111 12.3818Z" fill="url(#paint0_linear_43_293)"/>
<path d="M95.0485 162.634C136.131 162.634 133.567 144.858 133.567 144.858L133.517 126.44H94.3153V120.915H149.092C149.092 120.915 175.378 123.892 175.378 82.5321C175.378 41.1719 152.435 42.6402 152.435 42.6402H138.741V61.8293C138.741 61.8293 139.479 84.722 116.161 84.722H77.2835C77.2835 84.722 55.4375 84.3688 55.4375 105.788V141.204C55.4375 141.204 52.1202 162.634 95.0485 162.634ZM116.667 150.251C115.74 150.253 114.822 150.072 113.966 149.718C113.109 149.365 112.331 148.847 111.676 148.193C111.02 147.539 110.501 146.762 110.147 145.908C109.793 145.053 109.611 144.137 109.613 143.213C109.613 139.327 112.768 136.179 116.667 136.179C120.566 136.179 123.721 139.322 123.721 143.213C123.721 147.108 120.566 150.251 116.667 150.251Z" fill="url(#paint1_linear_43_293)"/>
<defs>
<linearGradient id="paint0_linear_43_293" x1="15.5501" y1="14.0368" x2="95.3853" y2="94.32" gradientUnits="userSpaceOnUse">
<stop stop-color="#71767B"/>
<stop offset="1" stop-color="#71767B"/>
</linearGradient>
<linearGradient id="paint1_linear_43_293" x1="78.3303" y1="67.0113" x2="164.086" y2="149.351" gradientUnits="userSpaceOnUse">
<stop stop-color="#71767B"/>
<stop offset="1" stop-color="#71767B"/>
</linearGradient>
</defs>
</svg>
