<svg width="282" height="279" viewBox="0 0 282 279" fill="none" xmlns="http://www.w3.org/2000/svg">
<path d="M9.60001 7.19995L12.2175 36.885L23.9625 40.8L35.7825 36.885L38.4 7.19995H9.60001ZM32.715 16.7925H18.93L19.2375 20.4975H32.4075L31.3875 31.6275L24.045 33.6525V33.675H23.9625L16.56 31.6275L16.11 25.9425H19.6875L19.95 28.8L23.9625 29.8875L27.99 28.8L28.44 24.135H15.9225L14.9625 13.215H33.045L32.715 16.7925Z" fill="#868E96"/>
<path d="M113.423 7.19995H85.2V35.4224C85.2 36.8474 85.77 38.2125 86.775 39.2249C87.78 40.2374 89.1525 40.7999 90.5775 40.7999H113.423C114.848 40.7999 116.213 40.2299 117.225 39.2249C118.238 38.2199 118.8 36.8474 118.8 35.4224V12.5775C118.8 11.1525 118.23 9.78745 117.225 8.77495C116.22 7.76245 114.848 7.19995 113.423 7.19995ZM110.13 37.1549C109.553 36.5174 109.253 35.6024 109.23 34.4099H111.578C111.593 35.4674 111.96 35.9924 112.688 35.9924C113.055 35.9924 113.318 35.8724 113.475 35.6399C113.625 35.4074 113.7 35.0399 113.7 34.5299C113.7 34.1249 113.603 33.7874 113.4 33.525C113.138 33.2099 112.793 32.9625 112.41 32.8125L111.54 32.4C110.768 32.0324 110.205 31.5899 109.853 31.0799C109.515 30.57 109.35 29.8575 109.35 28.9499C109.35 27.93 109.65 27.1049 110.235 26.4674C110.843 25.83 111.668 25.515 112.725 25.515C113.745 25.515 114.533 25.83 115.088 26.4525C115.65 27.0825 115.95 27.975 115.973 29.145H113.715C113.73 28.7625 113.648 28.3799 113.49 28.0349C113.363 27.7799 113.115 27.6525 112.74 27.6525C112.08 27.6525 111.75 28.0424 111.75 28.83C111.75 29.2274 111.833 29.535 111.99 29.775C112.223 30.0374 112.515 30.2399 112.845 30.3599L113.678 30.7275C114.54 31.125 115.155 31.6049 115.538 32.1824C115.92 32.76 116.108 33.5324 116.108 34.5075C116.108 35.67 115.808 36.5624 115.185 37.1849C114.57 37.8074 113.723 38.1224 112.628 38.1224C111.533 38.1224 110.708 37.8074 110.123 37.17L110.13 37.1549ZM102.555 37.1549C101.978 36.5174 101.678 35.6024 101.655 34.4099H104.003C104.018 35.4674 104.385 35.9924 105.113 35.9924C105.48 35.9924 105.743 35.8724 105.893 35.6399C106.043 35.4074 106.118 35.0399 106.118 34.5299C106.118 34.1249 106.02 33.7874 105.825 33.525C105.563 33.2099 105.218 32.9625 104.835 32.8125L103.965 32.4C103.193 32.0324 102.63 31.5899 102.278 31.0799C101.94 30.57 101.775 29.8575 101.775 28.9499C101.775 27.93 102.075 27.1049 102.66 26.4674C103.268 25.83 104.093 25.515 105.15 25.515C106.17 25.515 106.958 25.83 107.505 26.4525C108.075 27.0825 108.368 27.975 108.398 29.145H106.14C106.155 28.7625 106.073 28.3799 105.915 28.0349C105.788 27.7799 105.54 27.6525 105.165 27.6525C104.505 27.6525 104.175 28.0424 104.175 28.83C104.175 29.2274 104.258 29.535 104.415 29.775C104.648 30.0374 104.94 30.2399 105.27 30.3599L106.103 30.7275C106.965 31.125 107.58 31.6049 107.963 32.1824C108.345 32.76 108.533 33.5324 108.533 34.5075C108.533 35.67 108.225 36.5624 107.61 37.1849C106.995 37.8074 106.148 38.1224 105.053 38.1224C103.958 38.1224 103.133 37.8074 102.548 37.17L102.555 37.1549ZM94.635 37.2374C94.005 36.66 93.6975 35.7974 93.6975 34.65V28.995C93.6975 27.8549 94.0275 26.9925 94.6875 26.4C95.355 25.815 96.24 25.515 97.3275 25.515C98.385 25.515 99.2175 25.815 99.8325 26.415C100.455 27.015 100.77 27.915 100.77 29.1075V29.5575H98.2875V29.1224C98.2875 28.6649 98.19 28.32 97.9875 28.1025C97.905 27.99 97.7925 27.9 97.665 27.84C97.5375 27.78 97.4025 27.75 97.26 27.7575C96.855 27.7575 96.57 27.8925 96.405 28.1775C96.2325 28.5675 96.1575 28.9874 96.18 29.4074V34.32C96.18 35.3475 96.54 35.8649 97.26 35.8799C97.5975 35.8799 97.8525 35.76 98.025 35.52C98.2125 35.2125 98.3025 34.8599 98.2875 34.5V34.1325H100.77V34.5149C100.77 35.3099 100.613 35.9774 100.305 36.5099C100.005 37.0274 99.5625 37.4474 99.0225 37.7099C98.445 37.9874 97.815 38.1224 97.1775 38.1075C96.1125 38.1075 95.265 37.8149 94.6425 37.2374H94.635Z" fill="#868E96"/>
<path d="M163.2 7.19995V40.7999H196.8V7.19995H163.2ZM181.485 33.4049C181.485 36.6749 179.565 38.1674 176.768 38.1674C174.24 38.1674 172.778 36.8624 172.028 35.2799L174.6 33.7275C175.095 34.6049 175.545 35.3474 176.633 35.3474C177.668 35.3474 178.328 34.9424 178.328 33.3599V22.6275H181.485V33.4049ZM188.955 38.1674C186.023 38.1674 184.125 36.7724 183.203 34.9424L185.775 33.4575C186.45 34.5599 187.335 35.3775 188.888 35.3775C190.193 35.3775 191.033 34.7249 191.033 33.8174C191.033 32.7374 190.178 32.3549 188.73 31.7174L187.943 31.3799C185.663 30.4124 184.155 29.1899 184.155 26.6174C184.155 24.2474 185.963 22.4474 188.775 22.4474C190.785 22.4474 192.225 23.1449 193.26 24.975L190.8 26.5499C190.26 25.5825 189.675 25.1999 188.768 25.1999C187.845 25.1999 187.26 25.785 187.26 26.5499C187.26 27.4949 187.845 27.8775 189.203 28.4699L189.99 28.8075C192.675 29.955 194.183 31.1324 194.183 33.7724C194.183 36.6074 191.948 38.1674 188.955 38.1674Z" fill="#868E96"/>
<path d="M274.8 20.235C273.69 20.97 272.415 21.5625 271.088 22.035C267.563 23.295 262.935 24 258 24C253.065 24 248.43 23.2875 244.913 22.035C243.593 21.5625 242.31 20.97 241.2 20.235V26.4C241.2 29.715 248.723 32.4 258 32.4C267.278 32.4 274.8 29.715 274.8 26.4V20.235ZM274.8 14.4V10.8C274.8 7.48505 267.278 4.80005 258 4.80005C248.723 4.80005 241.2 7.48505 241.2 10.8V14.4C241.2 17.715 248.723 20.4 258 20.4C267.278 20.4 274.8 17.715 274.8 14.4ZM271.088 34.035C267.57 35.2875 262.943 36 258 36C253.058 36 248.43 35.2875 244.913 34.035C243.593 33.5625 242.31 32.97 241.2 32.235V37.2001C241.2 40.515 248.723 43.2001 258 43.2001C267.278 43.2001 274.8 40.515 274.8 37.2001V32.235C273.69 32.97 272.415 33.5625 271.088 34.035Z" fill="#868E96"/>
<path d="M12.9261 66.0625V70H11.9205V61.2727H12.9261V64.4773H13.0114C13.1648 64.1392 13.3949 63.8707 13.7017 63.6719C14.0114 63.4702 14.4233 63.3693 14.9375 63.3693C15.3835 63.3693 15.7741 63.4588 16.1094 63.6378C16.4446 63.8139 16.7045 64.0852 16.8892 64.4517C17.0767 64.8153 17.1705 65.2784 17.1705 65.8409V70H16.1648V65.9091C16.1648 65.3892 16.0298 64.9872 15.7599 64.7031C15.4929 64.4162 15.1222 64.2727 14.6477 64.2727C14.3182 64.2727 14.0227 64.3423 13.7614 64.4815C13.5028 64.6207 13.2983 64.8239 13.1477 65.0909C13 65.358 12.9261 65.6818 12.9261 66.0625ZM21.8569 63.4545V64.3068H18.4648V63.4545H21.8569ZM19.4535 61.8864H20.4592V68.125C20.4592 68.4091 20.5004 68.6222 20.5827 68.7642C20.668 68.9034 20.7759 68.9972 20.9066 69.0455C21.0401 69.0909 21.1808 69.1136 21.3285 69.1136C21.4393 69.1136 21.5302 69.108 21.6012 69.0966C21.6722 69.0824 21.729 69.071 21.7717 69.0625L21.9762 69.9659C21.908 69.9915 21.8129 70.017 21.6907 70.0426C21.5685 70.071 21.4137 70.0852 21.2262 70.0852C20.9421 70.0852 20.6637 70.0241 20.391 69.902C20.1211 69.7798 19.8967 69.5938 19.7177 69.3438C19.5415 69.0938 19.4535 68.7784 19.4535 68.3977V61.8864ZM23.3697 70V63.4545H24.3413V64.4773H24.4265C24.5629 64.1278 24.783 63.8565 25.087 63.6634C25.391 63.4673 25.756 63.3693 26.1822 63.3693C26.614 63.3693 26.9734 63.4673 27.2603 63.6634C27.5501 63.8565 27.7759 64.1278 27.9379 64.4773H28.006C28.1737 64.1392 28.4251 63.8707 28.7603 63.6719C29.0955 63.4702 29.4975 63.3693 29.9663 63.3693C30.5515 63.3693 31.0302 63.5526 31.4023 63.919C31.7745 64.2827 31.9606 64.8494 31.9606 65.6193V70H30.9549V65.6193C30.9549 65.1364 30.8228 64.7912 30.5586 64.5838C30.2944 64.3764 29.9833 64.2727 29.6254 64.2727C29.1651 64.2727 28.8086 64.4119 28.5558 64.6903C28.3029 64.9659 28.1765 65.3153 28.1765 65.7386V70H27.1538V65.517C27.1538 65.1449 27.033 64.8452 26.7915 64.6179C26.5501 64.3878 26.239 64.2727 25.8583 64.2727C25.5969 64.2727 25.3526 64.3423 25.1254 64.4815C24.9009 64.6207 24.7191 64.8139 24.5799 65.0611C24.4435 65.3054 24.3754 65.5881 24.3754 65.9091V70H23.3697ZM34.805 61.2727V70H33.7994V61.2727H34.805Z" fill="#71767B"/>
<path d="M12.9205 166.455H13.9261V173.477C13.9261 173.881 13.8565 174.23 13.7173 174.526C13.581 174.821 13.3736 175.05 13.0952 175.212C12.8196 175.374 12.4716 175.455 12.0511 175.455C12.017 175.455 11.983 175.455 11.9489 175.455C11.9148 175.455 11.8807 175.455 11.8466 175.455V174.517C11.8807 174.517 11.9119 174.517 11.9403 174.517C11.9688 174.517 12 174.517 12.0341 174.517C12.3409 174.517 12.5653 174.426 12.7074 174.244C12.8494 174.065 12.9205 173.81 12.9205 173.477V166.455ZM13.4148 165.364C13.2188 165.364 13.0497 165.297 12.9077 165.163C12.7685 165.03 12.6989 164.869 12.6989 164.682C12.6989 164.494 12.7685 164.334 12.9077 164.2C13.0497 164.067 13.2188 164 13.4148 164C13.6108 164 13.7784 164.067 13.9176 164.2C14.0597 164.334 14.1307 164.494 14.1307 164.682C14.1307 164.869 14.0597 165.03 13.9176 165.163C13.7784 165.297 13.6108 165.364 13.4148 165.364ZM17.6942 173.153C17.2795 173.153 16.9031 173.075 16.565 172.919C16.2269 172.76 15.9585 172.531 15.7596 172.233C15.5607 171.932 15.4613 171.568 15.4613 171.142C15.4613 170.767 15.5352 170.463 15.6829 170.23C15.8306 169.994 16.0281 169.81 16.2752 169.676C16.5224 169.543 16.7951 169.443 17.0934 169.378C17.3945 169.31 17.6971 169.256 18.0011 169.216C18.3988 169.165 18.7212 169.126 18.9684 169.101C19.2184 169.072 19.4002 169.026 19.5138 168.96C19.6303 168.895 19.6886 168.781 19.6886 168.619V168.585C19.6886 168.165 19.5735 167.838 19.3434 167.605C19.1161 167.372 18.771 167.256 18.3079 167.256C17.8278 167.256 17.4513 167.361 17.1786 167.571C16.9059 167.781 16.7141 168.006 16.6033 168.244L15.6488 167.903C15.8192 167.506 16.0465 167.196 16.3306 166.974C16.6175 166.75 16.93 166.594 17.2681 166.506C17.609 166.415 17.9442 166.369 18.2738 166.369C18.484 166.369 18.7255 166.395 18.9982 166.446C19.2738 166.494 19.5394 166.595 19.7951 166.749C20.0536 166.902 20.2681 167.134 20.4386 167.443C20.609 167.753 20.6942 168.168 20.6942 168.688V173H19.6886V172.114H19.6374C19.5692 172.256 19.4556 172.408 19.2965 172.57C19.1374 172.732 18.9258 172.869 18.6616 172.983C18.3974 173.097 18.0749 173.153 17.6942 173.153ZM17.8477 172.25C18.2454 172.25 18.5806 172.172 18.8533 172.016C19.1289 171.859 19.3363 171.658 19.4755 171.411C19.6175 171.163 19.6886 170.903 19.6886 170.631V169.71C19.646 169.761 19.5522 169.808 19.4073 169.851C19.2653 169.891 19.1005 169.926 18.913 169.957C18.7283 169.986 18.5479 170.011 18.3718 170.034C18.1985 170.054 18.0579 170.071 17.9499 170.085C17.6886 170.119 17.4442 170.175 17.217 170.251C16.9925 170.325 16.8107 170.437 16.6715 170.588C16.5352 170.736 16.467 170.937 16.467 171.193C16.467 171.543 16.5962 171.807 16.8548 171.986C17.1161 172.162 17.4471 172.25 17.8477 172.25ZM27.6477 166.455L25.2273 173H24.2045L21.7841 166.455H22.875L24.6818 171.67H24.75L26.5568 166.455H27.6477ZM30.7021 173.153C30.2873 173.153 29.9109 173.075 29.5728 172.919C29.2347 172.76 28.9663 172.531 28.7674 172.233C28.5685 171.932 28.4691 171.568 28.4691 171.142C28.4691 170.767 28.543 170.463 28.6907 170.23C28.8384 169.994 29.0359 169.81 29.283 169.676C29.5302 169.543 29.8029 169.443 30.1012 169.378C30.4023 169.31 30.7049 169.256 31.0089 169.216C31.4066 169.165 31.729 169.126 31.9762 169.101C32.2262 169.072 32.408 169.026 32.5217 168.96C32.6381 168.895 32.6964 168.781 32.6964 168.619V168.585C32.6964 168.165 32.5813 167.838 32.3512 167.605C32.1239 167.372 31.7788 167.256 31.3157 167.256C30.8356 167.256 30.4592 167.361 30.1864 167.571C29.9137 167.781 29.7219 168.006 29.6112 168.244L28.6566 167.903C28.8271 167.506 29.0543 167.196 29.3384 166.974C29.6254 166.75 29.9379 166.594 30.2759 166.506C30.6168 166.415 30.9521 166.369 31.2816 166.369C31.4918 166.369 31.7333 166.395 32.006 166.446C32.2816 166.494 32.5472 166.595 32.8029 166.749C33.0614 166.902 33.2759 167.134 33.4464 167.443C33.6168 167.753 33.7021 168.168 33.7021 168.688V173H32.6964V172.114H32.6452C32.5771 172.256 32.4634 172.408 32.3043 172.57C32.1452 172.732 31.9336 172.869 31.6694 172.983C31.4052 173.097 31.0827 173.153 30.7021 173.153ZM30.8555 172.25C31.2532 172.25 31.5884 172.172 31.8612 172.016C32.1367 171.859 32.3441 171.658 32.4833 171.411C32.6254 171.163 32.6964 170.903 32.6964 170.631V169.71C32.6538 169.761 32.56 169.808 32.4151 169.851C32.2731 169.891 32.1083 169.926 31.9208 169.957C31.7362 169.986 31.5558 170.011 31.3796 170.034C31.2063 170.054 31.0657 170.071 30.9577 170.085C30.6964 170.119 30.4521 170.175 30.2248 170.251C30.0004 170.325 29.8185 170.437 29.6793 170.588C29.543 170.736 29.4748 170.937 29.4748 171.193C29.4748 171.543 29.604 171.807 29.8626 171.986C30.1239 172.162 30.4549 172.25 30.8555 172.25Z" fill="#71767B"/>
<path d="M87.9773 164.273V173H86.9545L82.1989 166.148H82.1136V173H81.0568V164.273H82.0795L86.8523 171.142H86.9375V164.273H87.9773ZM92.6147 173.136C92.0238 173.136 91.5053 172.996 91.0593 172.714C90.6161 172.433 90.2695 172.04 90.0195 171.534C89.7724 171.028 89.6488 170.437 89.6488 169.761C89.6488 169.08 89.7724 168.484 90.0195 167.976C90.2695 167.467 90.6161 167.072 91.0593 166.791C91.5053 166.51 92.0238 166.369 92.6147 166.369C93.2056 166.369 93.7227 166.51 94.1658 166.791C94.6119 167.072 94.9585 167.467 95.2056 167.976C95.4556 168.484 95.5806 169.08 95.5806 169.761C95.5806 170.437 95.4556 171.028 95.2056 171.534C94.9585 172.04 94.6119 172.433 94.1658 172.714C93.7227 172.996 93.2056 173.136 92.6147 173.136ZM92.6147 172.233C93.0636 172.233 93.4329 172.118 93.7227 171.888C94.0124 171.658 94.2269 171.355 94.3661 170.98C94.5053 170.605 94.5749 170.199 94.5749 169.761C94.5749 169.324 94.5053 168.916 94.3661 168.538C94.2269 168.161 94.0124 167.855 93.7227 167.622C93.4329 167.389 93.0636 167.273 92.6147 167.273C92.1658 167.273 91.7965 167.389 91.5067 167.622C91.217 167.855 91.0025 168.161 90.8633 168.538C90.7241 168.916 90.6545 169.324 90.6545 169.761C90.6545 170.199 90.7241 170.605 90.8633 170.98C91.0025 171.355 91.217 171.658 91.5067 171.888C91.7965 172.118 92.1658 172.233 92.6147 172.233ZM99.5874 173.136C99.0419 173.136 98.5604 172.999 98.1428 172.723C97.7251 172.445 97.3984 172.053 97.1626 171.547C96.9268 171.038 96.8089 170.438 96.8089 169.744C96.8089 169.057 96.9268 168.46 97.1626 167.955C97.3984 167.449 97.7266 167.058 98.147 166.783C98.5675 166.507 99.0533 166.369 99.6044 166.369C100.031 166.369 100.367 166.44 100.614 166.582C100.864 166.722 101.055 166.881 101.185 167.06C101.319 167.236 101.423 167.381 101.496 167.494H101.582V164.273H102.587V173H101.616V171.994H101.496C101.423 172.114 101.317 172.264 101.181 172.446C101.045 172.625 100.85 172.786 100.597 172.928C100.344 173.067 100.008 173.136 99.5874 173.136ZM99.7237 172.233C100.127 172.233 100.468 172.128 100.746 171.918C101.025 171.705 101.237 171.411 101.381 171.036C101.526 170.658 101.599 170.222 101.599 169.727C101.599 169.239 101.528 168.811 101.386 168.445C101.244 168.075 101.033 167.788 100.755 167.584C100.477 167.376 100.133 167.273 99.7237 167.273C99.2976 167.273 98.9425 167.382 98.6584 167.601C98.3771 167.817 98.1655 168.111 98.0234 168.483C97.8842 168.852 97.8146 169.267 97.8146 169.727C97.8146 170.193 97.8857 170.616 98.0277 170.997C98.1726 171.375 98.3857 171.676 98.6669 171.901C98.951 172.122 99.3033 172.233 99.7237 172.233ZM107.313 173.136C106.683 173.136 106.138 172.997 105.681 172.719C105.227 172.438 104.876 172.045 104.629 171.543C104.384 171.037 104.262 170.449 104.262 169.778C104.262 169.108 104.384 168.517 104.629 168.006C104.876 167.491 105.219 167.091 105.66 166.804C106.103 166.514 106.62 166.369 107.211 166.369C107.552 166.369 107.888 166.426 108.221 166.54C108.553 166.653 108.856 166.838 109.129 167.094C109.401 167.347 109.619 167.682 109.781 168.099C109.942 168.517 110.023 169.031 110.023 169.642V170.068H104.978V169.199H109.001C109.001 168.83 108.927 168.5 108.779 168.21C108.634 167.92 108.427 167.692 108.157 167.524C107.89 167.357 107.575 167.273 107.211 167.273C106.81 167.273 106.464 167.372 106.171 167.571C105.881 167.767 105.658 168.023 105.502 168.338C105.346 168.653 105.268 168.991 105.268 169.352V169.932C105.268 170.426 105.353 170.845 105.523 171.189C105.697 171.53 105.937 171.79 106.244 171.969C106.55 172.145 106.907 172.233 107.313 172.233C107.577 172.233 107.816 172.196 108.029 172.122C108.245 172.045 108.431 171.932 108.587 171.781C108.744 171.628 108.864 171.437 108.95 171.21L109.921 171.483C109.819 171.812 109.647 172.102 109.406 172.352C109.164 172.599 108.866 172.793 108.511 172.932C108.156 173.068 107.756 173.136 107.313 173.136ZM112.286 173.068C112.076 173.068 111.896 172.993 111.745 172.842C111.594 172.692 111.519 172.511 111.519 172.301C111.519 172.091 111.594 171.911 111.745 171.76C111.896 171.609 112.076 171.534 112.286 171.534C112.496 171.534 112.677 171.609 112.827 171.76C112.978 171.911 113.053 172.091 113.053 172.301C113.053 172.44 113.018 172.568 112.947 172.685C112.879 172.801 112.786 172.895 112.67 172.966C112.556 173.034 112.428 173.068 112.286 173.068ZM114.858 166.455H115.864V173.477C115.864 173.881 115.794 174.23 115.655 174.526C115.518 174.821 115.311 175.05 115.033 175.212C114.757 175.374 114.409 175.455 113.989 175.455C113.955 175.455 113.92 175.455 113.886 175.455C113.852 175.455 113.818 175.455 113.784 175.455V174.517C113.818 174.517 113.849 174.517 113.878 174.517C113.906 174.517 113.938 174.517 113.972 174.517C114.278 174.517 114.503 174.426 114.645 174.244C114.787 174.065 114.858 173.81 114.858 173.477V166.455ZM115.352 165.364C115.156 165.364 114.987 165.297 114.845 165.163C114.706 165.03 114.636 164.869 114.636 164.682C114.636 164.494 114.706 164.334 114.845 164.2C114.987 164.067 115.156 164 115.352 164C115.548 164 115.716 164.067 115.855 164.2C115.997 164.334 116.068 164.494 116.068 164.682C116.068 164.869 115.997 165.03 115.855 165.163C115.716 165.297 115.548 165.364 115.352 165.364ZM122.342 167.92L121.439 168.176C121.382 168.026 121.298 167.879 121.187 167.737C121.079 167.592 120.931 167.473 120.744 167.379C120.556 167.286 120.316 167.239 120.024 167.239C119.623 167.239 119.289 167.331 119.022 167.516C118.758 167.697 118.626 167.929 118.626 168.21C118.626 168.46 118.717 168.658 118.899 168.803C119.081 168.947 119.365 169.068 119.751 169.165L120.723 169.403C121.308 169.545 121.744 169.763 122.031 170.055C122.318 170.345 122.461 170.719 122.461 171.176C122.461 171.551 122.353 171.886 122.137 172.182C121.924 172.477 121.626 172.71 121.243 172.881C120.859 173.051 120.413 173.136 119.904 173.136C119.237 173.136 118.684 172.991 118.247 172.702C117.809 172.412 117.532 171.989 117.416 171.432L118.37 171.193C118.461 171.545 118.633 171.81 118.886 171.986C119.142 172.162 119.475 172.25 119.887 172.25C120.356 172.25 120.728 172.151 121.004 171.952C121.282 171.75 121.422 171.509 121.422 171.227C121.422 171 121.342 170.81 121.183 170.656C121.024 170.5 120.779 170.384 120.45 170.307L119.359 170.051C118.76 169.909 118.319 169.689 118.038 169.391C117.76 169.089 117.62 168.713 117.62 168.261C117.62 167.892 117.724 167.565 117.931 167.281C118.142 166.997 118.427 166.774 118.788 166.612C119.152 166.45 119.564 166.369 120.024 166.369C120.672 166.369 121.18 166.511 121.549 166.795C121.922 167.08 122.186 167.455 122.342 167.92Z" fill="#71767B"/>
<path d="M176.562 175.591C176.077 175.591 175.659 175.528 175.31 175.403C174.96 175.281 174.669 175.119 174.436 174.918C174.206 174.719 174.023 174.506 173.886 174.278L174.688 173.716C174.778 173.835 174.893 173.972 175.033 174.125C175.172 174.281 175.362 174.416 175.604 174.53C175.848 174.646 176.168 174.705 176.562 174.705C177.091 174.705 177.527 174.577 177.871 174.321C178.214 174.065 178.386 173.665 178.386 173.119V171.79H178.301C178.227 171.909 178.122 172.057 177.986 172.233C177.852 172.406 177.659 172.561 177.406 172.697C177.156 172.831 176.818 172.898 176.392 172.898C175.864 172.898 175.389 172.773 174.969 172.523C174.551 172.273 174.22 171.909 173.976 171.432C173.734 170.955 173.614 170.375 173.614 169.693C173.614 169.023 173.732 168.439 173.967 167.942C174.203 167.442 174.531 167.055 174.952 166.783C175.372 166.507 175.858 166.369 176.409 166.369C176.835 166.369 177.173 166.44 177.423 166.582C177.676 166.722 177.869 166.881 178.003 167.06C178.139 167.236 178.244 167.381 178.318 167.494H178.42V166.455H179.392V173.188C179.392 173.75 179.264 174.207 179.009 174.56C178.756 174.915 178.415 175.175 177.986 175.339C177.56 175.507 177.085 175.591 176.562 175.591ZM176.528 171.994C176.932 171.994 177.273 171.902 177.551 171.717C177.83 171.533 178.041 171.267 178.186 170.92C178.331 170.574 178.403 170.159 178.403 169.676C178.403 169.205 178.332 168.788 178.19 168.428C178.048 168.067 177.838 167.784 177.56 167.58C177.281 167.375 176.938 167.273 176.528 167.273C176.102 167.273 175.747 167.381 175.463 167.597C175.182 167.812 174.97 168.102 174.828 168.466C174.689 168.83 174.619 169.233 174.619 169.676C174.619 170.131 174.69 170.533 174.832 170.882C174.977 171.229 175.19 171.501 175.472 171.7C175.756 171.896 176.108 171.994 176.528 171.994ZM181.233 173V166.455H182.239V173H181.233ZM181.744 165.364C181.548 165.364 181.379 165.297 181.237 165.163C181.098 165.03 181.028 164.869 181.028 164.682C181.028 164.494 181.098 164.334 181.237 164.2C181.379 164.067 181.548 164 181.744 164C181.94 164 182.108 164.067 182.247 164.2C182.389 164.334 182.46 164.494 182.46 164.682C182.46 164.869 182.389 165.03 182.247 165.163C182.108 165.297 181.94 165.364 181.744 165.364ZM186.927 166.455V167.307H183.535V166.455H186.927ZM184.524 164.886H185.529V171.125C185.529 171.409 185.571 171.622 185.653 171.764C185.738 171.903 185.846 171.997 185.977 172.045C186.11 172.091 186.251 172.114 186.399 172.114C186.51 172.114 186.6 172.108 186.672 172.097C186.743 172.082 186.799 172.071 186.842 172.062L187.047 172.966C186.978 172.991 186.883 173.017 186.761 173.043C186.639 173.071 186.484 173.085 186.297 173.085C186.012 173.085 185.734 173.024 185.461 172.902C185.191 172.78 184.967 172.594 184.788 172.344C184.612 172.094 184.524 171.778 184.524 171.398V164.886Z" fill="#71767B"/>
<path d="M242.562 175.591C242.077 175.591 241.659 175.528 241.31 175.403C240.96 175.281 240.669 175.119 240.436 174.918C240.206 174.719 240.023 174.506 239.886 174.278L240.688 173.716C240.778 173.835 240.893 173.972 241.033 174.125C241.172 174.281 241.362 174.416 241.604 174.53C241.848 174.646 242.168 174.705 242.562 174.705C243.091 174.705 243.527 174.577 243.871 174.321C244.214 174.065 244.386 173.665 244.386 173.119V171.79H244.301C244.227 171.909 244.122 172.057 243.986 172.233C243.852 172.406 243.659 172.561 243.406 172.697C243.156 172.831 242.818 172.898 242.392 172.898C241.864 172.898 241.389 172.773 240.969 172.523C240.551 172.273 240.22 171.909 239.976 171.432C239.734 170.955 239.614 170.375 239.614 169.693C239.614 169.023 239.732 168.439 239.967 167.942C240.203 167.442 240.531 167.055 240.952 166.783C241.372 166.507 241.858 166.369 242.409 166.369C242.835 166.369 243.173 166.44 243.423 166.582C243.676 166.722 243.869 166.881 244.003 167.06C244.139 167.236 244.244 167.381 244.318 167.494H244.42V166.455H245.392V173.188C245.392 173.75 245.264 174.207 245.009 174.56C244.756 174.915 244.415 175.175 243.986 175.339C243.56 175.507 243.085 175.591 242.562 175.591ZM242.528 171.994C242.932 171.994 243.273 171.902 243.551 171.717C243.83 171.533 244.041 171.267 244.186 170.92C244.331 170.574 244.403 170.159 244.403 169.676C244.403 169.205 244.332 168.788 244.19 168.428C244.048 168.067 243.838 167.784 243.56 167.58C243.281 167.375 242.938 167.273 242.528 167.273C242.102 167.273 241.747 167.381 241.463 167.597C241.182 167.812 240.97 168.102 240.828 168.466C240.689 168.83 240.619 169.233 240.619 169.676C240.619 170.131 240.69 170.533 240.832 170.882C240.977 171.229 241.19 171.501 241.472 171.7C241.756 171.896 242.108 171.994 242.528 171.994ZM247.233 173V166.455H248.239V173H247.233ZM247.744 165.364C247.548 165.364 247.379 165.297 247.237 165.163C247.098 165.03 247.028 164.869 247.028 164.682C247.028 164.494 247.098 164.334 247.237 164.2C247.379 164.067 247.548 164 247.744 164C247.94 164 248.108 164.067 248.247 164.2C248.389 164.334 248.46 164.494 248.46 164.682C248.46 164.869 248.389 165.03 248.247 165.163C248.108 165.297 247.94 165.364 247.744 165.364ZM252.927 166.455V167.307H249.535V166.455H252.927ZM250.524 164.886H251.529V171.125C251.529 171.409 251.571 171.622 251.653 171.764C251.738 171.903 251.846 171.997 251.977 172.045C252.11 172.091 252.251 172.114 252.399 172.114C252.51 172.114 252.6 172.108 252.672 172.097C252.743 172.082 252.799 172.071 252.842 172.062L253.047 172.966C252.978 172.991 252.883 173.017 252.761 173.043C252.639 173.071 252.484 173.085 252.297 173.085C252.012 173.085 251.734 173.024 251.461 172.902C251.191 172.78 250.967 172.594 250.788 172.344C250.612 172.094 250.524 171.778 250.524 171.398V164.886ZM255.586 169.062V173H254.581V164.273H255.586V167.477H255.672C255.825 167.139 256.055 166.871 256.362 166.672C256.672 166.47 257.083 166.369 257.598 166.369C258.044 166.369 258.434 166.459 258.77 166.638C259.105 166.814 259.365 167.085 259.549 167.452C259.737 167.815 259.831 168.278 259.831 168.841V173H258.825V168.909C258.825 168.389 258.69 167.987 258.42 167.703C258.153 167.416 257.782 167.273 257.308 167.273C256.978 167.273 256.683 167.342 256.422 167.482C256.163 167.621 255.958 167.824 255.808 168.091C255.66 168.358 255.586 168.682 255.586 169.062ZM265.795 170.324V166.455H266.801V173H265.795V171.892H265.727C265.574 172.224 265.335 172.507 265.011 172.74C264.688 172.97 264.278 173.085 263.784 173.085C263.375 173.085 263.011 172.996 262.693 172.817C262.375 172.635 262.125 172.362 261.943 171.999C261.761 171.632 261.67 171.17 261.67 170.614V166.455H262.676V170.545C262.676 171.023 262.81 171.403 263.077 171.688C263.347 171.972 263.69 172.114 264.108 172.114C264.358 172.114 264.612 172.05 264.871 171.922C265.132 171.794 265.351 171.598 265.527 171.334C265.706 171.07 265.795 170.733 265.795 170.324ZM268.779 173V164.273H269.785V167.494H269.87C269.944 167.381 270.047 167.236 270.177 167.06C270.311 166.881 270.501 166.722 270.748 166.582C270.998 166.44 271.336 166.369 271.762 166.369C272.314 166.369 272.799 166.507 273.22 166.783C273.64 167.058 273.968 167.449 274.204 167.955C274.44 168.46 274.558 169.057 274.558 169.744C274.558 170.438 274.44 171.038 274.204 171.547C273.968 172.053 273.642 172.445 273.224 172.723C272.806 172.999 272.325 173.136 271.779 173.136C271.359 173.136 271.022 173.067 270.77 172.928C270.517 172.786 270.322 172.625 270.186 172.446C270.049 172.264 269.944 172.114 269.87 171.994H269.751V173H268.779ZM269.768 169.727C269.768 170.222 269.841 170.658 269.985 171.036C270.13 171.411 270.342 171.705 270.62 171.918C270.899 172.128 271.24 172.233 271.643 172.233C272.064 172.233 272.414 172.122 272.696 171.901C272.98 171.676 273.193 171.375 273.335 170.997C273.48 170.616 273.552 170.193 273.552 169.727C273.552 169.267 273.481 168.852 273.339 168.483C273.2 168.111 272.988 167.817 272.704 167.601C272.423 167.382 272.069 167.273 271.643 167.273C271.234 167.273 270.89 167.376 270.612 167.584C270.333 167.788 270.123 168.075 269.981 168.445C269.839 168.811 269.768 169.239 269.768 169.727Z" fill="#71767B"/>
<path d="M99.0795 64H98.0227C97.9602 63.696 97.8509 63.429 97.6946 63.1989C97.5412 62.9688 97.3537 62.7756 97.1321 62.6193C96.9134 62.4602 96.6705 62.3409 96.4034 62.2614C96.1364 62.1818 95.858 62.142 95.5682 62.142C95.0398 62.142 94.5611 62.2756 94.1321 62.5426C93.706 62.8097 93.3665 63.2031 93.1136 63.723C92.8636 64.2429 92.7386 64.8807 92.7386 65.6364C92.7386 66.392 92.8636 67.0298 93.1136 67.5497C93.3665 68.0696 93.706 68.4631 94.1321 68.7301C94.5611 68.9972 95.0398 69.1307 95.5682 69.1307C95.858 69.1307 96.1364 69.0909 96.4034 69.0114C96.6705 68.9318 96.9134 68.8139 97.1321 68.6577C97.3537 68.4986 97.5412 68.304 97.6946 68.0739C97.8509 67.8409 97.9602 67.5739 98.0227 67.2727H99.0795C99 67.7187 98.8551 68.1179 98.6449 68.4702C98.4347 68.8224 98.1733 69.1222 97.8608 69.3693C97.5483 69.6136 97.1974 69.7997 96.8082 69.9276C96.4219 70.0554 96.0085 70.1193 95.5682 70.1193C94.8239 70.1193 94.1619 69.9375 93.5824 69.5739C93.0028 69.2102 92.5469 68.6932 92.2145 68.0227C91.8821 67.3523 91.7159 66.5568 91.7159 65.6364C91.7159 64.7159 91.8821 63.9205 92.2145 63.25C92.5469 62.5795 93.0028 62.0625 93.5824 61.6989C94.1619 61.3352 94.8239 61.1534 95.5682 61.1534C96.0085 61.1534 96.4219 61.2173 96.8082 61.3452C97.1974 61.473 97.5483 61.6605 97.8608 61.9077C98.1733 62.152 98.4347 62.4503 98.6449 62.8026C98.8551 63.152 99 63.5511 99.0795 64ZM105.287 64.9205L104.384 65.1761C104.327 65.0256 104.243 64.8793 104.132 64.7372C104.025 64.5923 103.877 64.473 103.689 64.3793C103.502 64.2855 103.262 64.2386 102.969 64.2386C102.569 64.2386 102.235 64.331 101.968 64.5156C101.703 64.6974 101.571 64.929 101.571 65.2102C101.571 65.4602 101.662 65.6577 101.844 65.8026C102.026 65.9474 102.31 66.0682 102.696 66.1648L103.668 66.4034C104.253 66.5455 104.689 66.7628 104.976 67.0554C105.263 67.3452 105.407 67.7187 105.407 68.1761C105.407 68.5511 105.299 68.8864 105.083 69.1818C104.87 69.4773 104.571 69.7102 104.188 69.8807C103.804 70.0511 103.358 70.1364 102.85 70.1364C102.182 70.1364 101.63 69.9915 101.192 69.7017C100.755 69.4119 100.478 68.9886 100.361 68.4318L101.316 68.1932C101.407 68.5455 101.578 68.8097 101.831 68.9858C102.087 69.1619 102.421 69.25 102.833 69.25C103.301 69.25 103.674 69.1506 103.949 68.9517C104.228 68.75 104.367 68.5085 104.367 68.2273C104.367 68 104.287 67.8097 104.128 67.6562C103.969 67.5 103.725 67.3835 103.395 67.3068L102.304 67.0511C101.705 66.9091 101.265 66.6889 100.983 66.3906C100.705 66.0895 100.566 65.7131 100.566 65.2614C100.566 64.892 100.669 64.5653 100.877 64.2812C101.087 63.9972 101.373 63.7741 101.733 63.6122C102.097 63.4503 102.509 63.3693 102.969 63.3693C103.617 63.3693 104.125 63.5114 104.495 63.7955C104.867 64.0795 105.131 64.4545 105.287 64.9205ZM111.557 64.9205L110.653 65.1761C110.597 65.0256 110.513 64.8793 110.402 64.7372C110.294 64.5923 110.146 64.473 109.959 64.3793C109.771 64.2855 109.531 64.2386 109.239 64.2386C108.838 64.2386 108.504 64.331 108.237 64.5156C107.973 64.6974 107.841 64.929 107.841 65.2102C107.841 65.4602 107.932 65.6577 108.114 65.8026C108.295 65.9474 108.58 66.0682 108.966 66.1648L109.938 66.4034C110.523 66.5455 110.959 66.7628 111.246 67.0554C111.533 67.3452 111.676 67.7187 111.676 68.1761C111.676 68.5511 111.568 68.8864 111.352 69.1818C111.139 69.4773 110.841 69.7102 110.457 69.8807C110.074 70.0511 109.628 70.1364 109.119 70.1364C108.452 70.1364 107.899 69.9915 107.462 69.7017C107.024 69.4119 106.747 68.9886 106.631 68.4318L107.585 68.1932C107.676 68.5455 107.848 68.8097 108.101 68.9858C108.357 69.1619 108.69 69.25 109.102 69.25C109.571 69.25 109.943 69.1506 110.219 68.9517C110.497 68.75 110.636 68.5085 110.636 68.2273C110.636 68 110.557 67.8097 110.398 67.6562C110.239 67.5 109.994 67.3835 109.665 67.3068L108.574 67.0511C107.974 66.9091 107.534 66.6889 107.253 66.3906C106.974 66.0895 106.835 65.7131 106.835 65.2614C106.835 64.892 106.939 64.5653 107.146 64.2812C107.357 63.9972 107.642 63.7741 108.003 63.6122C108.366 63.4503 108.778 63.3693 109.239 63.3693C109.886 63.3693 110.395 63.5114 110.764 63.7955C111.136 64.0795 111.401 64.4545 111.557 64.9205Z" fill="#71767B"/>
<path d="M175.92 63.4545H176.926V70.4773C176.926 70.8807 176.857 71.2301 176.717 71.5256C176.581 71.821 176.374 72.0497 176.095 72.2116C175.82 72.3736 175.472 72.4545 175.051 72.4545C175.017 72.4545 174.983 72.4545 174.949 72.4545C174.915 72.4545 174.881 72.4545 174.847 72.4545V71.517C174.881 71.517 174.912 71.517 174.94 71.517C174.969 71.517 175 71.517 175.034 71.517C175.341 71.517 175.565 71.4261 175.707 71.2443C175.849 71.0653 175.92 70.8097 175.92 70.4773V63.4545ZM176.415 62.3636C176.219 62.3636 176.05 62.2969 175.908 62.1634C175.768 62.0298 175.699 61.8693 175.699 61.6818C175.699 61.4943 175.768 61.3338 175.908 61.2003C176.05 61.0668 176.219 61 176.415 61C176.611 61 176.778 61.0668 176.918 61.2003C177.06 61.3338 177.131 61.4943 177.131 61.6818C177.131 61.8693 177.06 62.0298 176.918 62.1634C176.778 62.2969 176.611 62.3636 176.415 62.3636ZM183.404 64.9205L182.501 65.1761C182.444 65.0256 182.36 64.8793 182.25 64.7372C182.142 64.5923 181.994 64.473 181.806 64.3793C181.619 64.2855 181.379 64.2386 181.086 64.2386C180.686 64.2386 180.352 64.331 180.085 64.5156C179.821 64.6974 179.689 64.929 179.689 65.2102C179.689 65.4602 179.779 65.6577 179.961 65.8026C180.143 65.9474 180.427 66.0682 180.814 66.1648L181.785 66.4034C182.37 66.5455 182.806 66.7628 183.093 67.0554C183.38 67.3452 183.524 67.7187 183.524 68.1761C183.524 68.5511 183.416 68.8864 183.2 69.1818C182.987 69.4773 182.689 69.7102 182.305 69.8807C181.922 70.0511 181.475 70.1364 180.967 70.1364C180.299 70.1364 179.747 69.9915 179.309 69.7017C178.872 69.4119 178.595 68.9886 178.478 68.4318L179.433 68.1932C179.524 68.5455 179.696 68.8097 179.949 68.9858C180.204 69.1619 180.538 69.25 180.95 69.25C181.419 69.25 181.791 69.1506 182.066 68.9517C182.345 68.75 182.484 68.5085 182.484 68.2273C182.484 68 182.404 67.8097 182.245 67.6562C182.086 67.5 181.842 67.3835 181.512 67.3068L180.422 67.0511C179.822 66.9091 179.382 66.6889 179.1 66.3906C178.822 66.0895 178.683 65.7131 178.683 65.2614C178.683 64.892 178.787 64.5653 178.994 64.2812C179.204 63.9972 179.49 63.7741 179.85 63.6122C180.214 63.4503 180.626 63.3693 181.086 63.3693C181.734 63.3693 182.243 63.5114 182.612 63.7955C182.984 64.0795 183.248 64.4545 183.404 64.9205Z" fill="#71767B"/>
<path d="M254.83 63.4545C254.778 63.0227 254.571 62.6875 254.207 62.4489C253.844 62.2102 253.398 62.0909 252.869 62.0909C252.483 62.0909 252.145 62.1534 251.855 62.2784C251.568 62.4034 251.344 62.5753 251.182 62.794C251.023 63.0128 250.943 63.2614 250.943 63.5398C250.943 63.7727 250.999 63.973 251.109 64.1406C251.223 64.3054 251.368 64.4432 251.544 64.554C251.72 64.6619 251.905 64.7514 252.098 64.8224C252.291 64.8906 252.469 64.946 252.631 64.9886L253.517 65.2273C253.744 65.2869 253.997 65.3693 254.276 65.4744C254.557 65.5795 254.825 65.723 255.081 65.9048C255.339 66.0838 255.553 66.3139 255.72 66.5952C255.888 66.8764 255.972 67.2216 255.972 67.6307C255.972 68.1023 255.848 68.5284 255.601 68.9091C255.357 69.2898 254.999 69.5923 254.527 69.8168C254.058 70.0412 253.489 70.1534 252.818 70.1534C252.193 70.1534 251.652 70.0526 251.195 69.8509C250.74 69.6491 250.382 69.3679 250.121 69.0071C249.862 68.6463 249.716 68.2273 249.682 67.75H250.773C250.801 68.0795 250.912 68.3523 251.105 68.5682C251.301 68.7812 251.548 68.9403 251.847 69.0455C252.148 69.1477 252.472 69.1989 252.818 69.1989C253.222 69.1989 253.584 69.1335 253.905 69.0028C254.226 68.8693 254.48 68.6847 254.668 68.4489C254.855 68.2102 254.949 67.9318 254.949 67.6136C254.949 67.3239 254.868 67.0881 254.706 66.9062C254.544 66.7244 254.331 66.5767 254.067 66.4631C253.803 66.3494 253.517 66.25 253.21 66.1648L252.136 65.858C251.455 65.6619 250.915 65.3821 250.517 65.0185C250.119 64.6548 249.92 64.179 249.92 63.5909C249.92 63.1023 250.053 62.6761 250.317 62.3125C250.584 61.946 250.942 61.6619 251.391 61.4602C251.842 61.2557 252.347 61.1534 252.903 61.1534C253.466 61.1534 253.966 61.2543 254.403 61.456C254.841 61.6548 255.188 61.9276 255.443 62.2741C255.702 62.6207 255.838 63.0142 255.852 63.4545H254.83ZM262.039 72.4545V68.9943H261.953C261.88 69.1136 261.775 69.2642 261.638 69.446C261.502 69.625 261.307 69.7855 261.054 69.9276C260.801 70.0668 260.465 70.1364 260.044 70.1364C259.499 70.1364 259.017 69.9986 258.6 69.723C258.182 69.4446 257.855 69.0526 257.62 68.5469C257.384 68.0384 257.266 67.4375 257.266 66.7443C257.266 66.0568 257.384 65.4602 257.62 64.9545C257.855 64.4489 258.184 64.0582 258.604 63.7827C259.025 63.5071 259.51 63.3693 260.061 63.3693C260.488 63.3693 260.824 63.4403 261.071 63.5824C261.321 63.7216 261.512 63.8807 261.642 64.0597C261.776 64.2358 261.88 64.3807 261.953 64.4943H262.073V63.4545H263.044V72.4545H262.039ZM260.181 69.233C260.584 69.233 260.925 69.1278 261.203 68.9176C261.482 68.7045 261.694 68.4105 261.838 68.0355C261.983 67.6577 262.056 67.2216 262.056 66.7273C262.056 66.2386 261.985 65.8111 261.843 65.4446C261.701 65.0753 261.49 64.7884 261.212 64.5838C260.934 64.3764 260.59 64.2727 260.181 64.2727C259.755 64.2727 259.4 64.3821 259.115 64.6009C258.834 64.8168 258.623 65.1108 258.48 65.483C258.341 65.8523 258.272 66.267 258.272 66.7273C258.272 67.1932 258.343 67.6165 258.485 67.9972C258.63 68.375 258.843 68.6761 259.124 68.9006C259.408 69.1222 259.76 69.233 260.181 69.233ZM265.891 61.2727V70H264.885V61.2727H265.891Z" fill="#71767B"/>
<path d="M118.185 225.838C117.608 223.52 116.513 221.773 114.18 221.773H111.173V225.328C111.173 228.088 108.833 230.413 106.163 230.413H98.1525C95.9625 230.413 94.1475 232.288 94.1475 234.485V242.12C94.1475 244.295 96.0375 245.57 98.1525 246.193C100.688 246.935 103.125 247.07 106.163 246.193C108.18 245.608 110.168 244.43 110.168 242.12V239.068H102.165V238.048H114.18C116.513 238.048 117.375 236.42 118.185 233.983C119.025 231.47 118.988 229.055 118.185 225.838ZM106.665 244.153C106.095 244.19 105.548 243.913 105.248 243.425C104.955 242.93 104.955 242.323 105.248 241.828C105.548 241.34 106.095 241.063 106.665 241.1C107.235 241.063 107.783 241.34 108.083 241.828C108.375 242.323 108.375 242.93 108.083 243.425C107.783 243.913 107.235 244.19 106.665 244.153ZM97.785 229.408H105.795C108.023 229.408 109.8 227.57 109.8 225.335V217.693C109.8 215.518 107.97 213.89 105.795 213.523C103.11 213.08 100.193 213.103 97.785 213.53C94.395 214.13 93.78 215.383 93.78 217.7V220.753H101.798V221.773H90.7725C88.44 221.773 86.4 223.175 85.7625 225.838C85.0275 228.89 84.9975 230.795 85.7625 233.983C86.3325 236.353 87.69 238.048 90.0225 238.048H92.775V234.388C92.775 231.74 95.0625 229.408 97.785 229.408ZM97.29 215.653C98.1375 215.653 98.82 216.335 98.82 217.183C98.82 218.03 98.1375 218.713 97.29 218.713C96.4425 218.713 95.76 218.03 95.76 217.183C95.76 216.335 96.4425 215.653 97.29 215.653Z" fill="#868E96"/>
<path d="M83.0568 276V267.273H86.0057C86.6903 267.273 87.25 267.396 87.6847 267.643C88.1222 267.888 88.446 268.219 88.6562 268.636C88.8665 269.054 88.9716 269.52 88.9716 270.034C88.9716 270.548 88.8665 271.016 88.6562 271.436C88.4489 271.857 88.1278 272.192 87.6932 272.442C87.2585 272.689 86.7017 272.812 86.0227 272.812H83.9091V271.875H85.9886C86.4574 271.875 86.8338 271.794 87.1179 271.632C87.402 271.47 87.608 271.251 87.7358 270.976C87.8665 270.697 87.9318 270.384 87.9318 270.034C87.9318 269.685 87.8665 269.372 87.7358 269.097C87.608 268.821 87.4006 268.605 87.1136 268.449C86.8267 268.29 86.446 268.21 85.9716 268.21H84.1136V276H83.0568ZM91.1854 278.455C91.0149 278.455 90.8629 278.44 90.7294 278.412C90.5959 278.386 90.5036 278.361 90.4524 278.335L90.7081 277.449C90.9524 277.511 91.1683 277.534 91.3558 277.517C91.5433 277.5 91.7095 277.416 91.8544 277.266C92.0021 277.118 92.1371 276.878 92.2592 276.545L92.4467 276.034L90.0263 269.455H91.1172L92.924 274.67H92.9922L94.799 269.455H95.8899L93.1115 276.955C92.9865 277.293 92.8317 277.572 92.647 277.794C92.4624 278.018 92.2479 278.185 92.0036 278.293C91.7621 278.401 91.4893 278.455 91.1854 278.455ZM100.064 269.455V270.307H96.6719V269.455H100.064ZM97.6605 267.886H98.6662V274.125C98.6662 274.409 98.7074 274.622 98.7898 274.764C98.875 274.903 98.983 274.997 99.1136 275.045C99.2472 275.091 99.3878 275.114 99.5355 275.114C99.6463 275.114 99.7372 275.108 99.8082 275.097C99.8793 275.082 99.9361 275.071 99.9787 275.062L100.183 275.966C100.115 275.991 100.02 276.017 99.8977 276.043C99.7756 276.071 99.6207 276.085 99.4332 276.085C99.1491 276.085 98.8707 276.024 98.598 275.902C98.3281 275.78 98.1037 275.594 97.9247 275.344C97.7486 275.094 97.6605 274.778 97.6605 274.398V267.886ZM102.723 272.062V276H101.717V267.273H102.723V270.477H102.808C102.962 270.139 103.192 269.871 103.499 269.672C103.808 269.47 104.22 269.369 104.734 269.369C105.18 269.369 105.571 269.459 105.906 269.638C106.241 269.814 106.501 270.085 106.686 270.452C106.874 270.815 106.967 271.278 106.967 271.841V276H105.962V271.909C105.962 271.389 105.827 270.987 105.557 270.703C105.29 270.416 104.919 270.273 104.445 270.273C104.115 270.273 103.82 270.342 103.558 270.482C103.3 270.621 103.095 270.824 102.945 271.091C102.797 271.358 102.723 271.682 102.723 272.062ZM111.466 276.136C110.875 276.136 110.357 275.996 109.911 275.714C109.468 275.433 109.121 275.04 108.871 274.534C108.624 274.028 108.5 273.437 108.5 272.761C108.5 272.08 108.624 271.484 108.871 270.976C109.121 270.467 109.468 270.072 109.911 269.791C110.357 269.51 110.875 269.369 111.466 269.369C112.057 269.369 112.574 269.51 113.017 269.791C113.463 270.072 113.81 270.467 114.057 270.976C114.307 271.484 114.432 272.08 114.432 272.761C114.432 273.437 114.307 274.028 114.057 274.534C113.81 275.04 113.463 275.433 113.017 275.714C112.574 275.996 112.057 276.136 111.466 276.136ZM111.466 275.233C111.915 275.233 112.284 275.118 112.574 274.888C112.864 274.658 113.078 274.355 113.218 273.98C113.357 273.605 113.426 273.199 113.426 272.761C113.426 272.324 113.357 271.916 113.218 271.538C113.078 271.161 112.864 270.855 112.574 270.622C112.284 270.389 111.915 270.273 111.466 270.273C111.017 270.273 110.648 270.389 110.358 270.622C110.069 270.855 109.854 271.161 109.715 271.538C109.576 271.916 109.506 272.324 109.506 272.761C109.506 273.199 109.576 273.605 109.715 273.98C109.854 274.355 110.069 274.658 110.358 274.888C110.648 275.118 111.017 275.233 111.466 275.233ZM116.973 272.062V276H115.967V269.455H116.939V270.477H117.024C117.178 270.145 117.411 269.878 117.723 269.676C118.036 269.472 118.439 269.369 118.933 269.369C119.376 269.369 119.764 269.46 120.097 269.642C120.429 269.821 120.688 270.094 120.872 270.46C121.057 270.824 121.149 271.284 121.149 271.841V276H120.143V271.909C120.143 271.395 120.01 270.994 119.743 270.707C119.476 270.418 119.109 270.273 118.643 270.273C118.322 270.273 118.036 270.342 117.783 270.482C117.533 270.621 117.335 270.824 117.19 271.091C117.045 271.358 116.973 271.682 116.973 272.062Z" fill="#71767B"/>
<path d="M15.8466 276.153C15.4318 276.153 15.0554 276.075 14.7173 275.919C14.3793 275.76 14.1108 275.531 13.9119 275.233C13.7131 274.932 13.6136 274.568 13.6136 274.142C13.6136 273.767 13.6875 273.463 13.8352 273.23C13.983 272.994 14.1804 272.81 14.4276 272.676C14.6747 272.543 14.9474 272.443 15.2457 272.378C15.5469 272.31 15.8494 272.256 16.1534 272.216C16.5511 272.165 16.8736 272.126 17.1207 272.101C17.3707 272.072 17.5526 272.026 17.6662 271.96C17.7827 271.895 17.8409 271.781 17.8409 271.619V271.585C17.8409 271.165 17.7259 270.838 17.4957 270.605C17.2685 270.372 16.9233 270.256 16.4602 270.256C15.9801 270.256 15.6037 270.361 15.331 270.571C15.0582 270.781 14.8665 271.006 14.7557 271.244L13.8011 270.903C13.9716 270.506 14.1989 270.196 14.483 269.974C14.7699 269.75 15.0824 269.594 15.4205 269.506C15.7614 269.415 16.0966 269.369 16.4261 269.369C16.6364 269.369 16.8778 269.395 17.1506 269.446C17.4261 269.494 17.6918 269.595 17.9474 269.749C18.206 269.902 18.4205 270.134 18.5909 270.443C18.7614 270.753 18.8466 271.168 18.8466 271.688V276H17.8409V275.114H17.7898C17.7216 275.256 17.608 275.408 17.4489 275.57C17.2898 275.732 17.0781 275.869 16.8139 275.983C16.5497 276.097 16.2273 276.153 15.8466 276.153ZM16 275.25C16.3977 275.25 16.733 275.172 17.0057 275.016C17.2813 274.859 17.4886 274.658 17.6278 274.411C17.7699 274.163 17.8409 273.903 17.8409 273.631V272.71C17.7983 272.761 17.7045 272.808 17.5597 272.851C17.4176 272.891 17.2528 272.926 17.0653 272.957C16.8807 272.986 16.7003 273.011 16.5241 273.034C16.3509 273.054 16.2102 273.071 16.1023 273.085C15.8409 273.119 15.5966 273.175 15.3693 273.251C15.1449 273.325 14.9631 273.437 14.8239 273.588C14.6875 273.736 14.6193 273.937 14.6193 274.193C14.6193 274.543 14.7486 274.807 15.0071 274.986C15.2685 275.162 15.5994 275.25 16 275.25ZM22.1651 276L20.1708 269.455H21.2276L22.6424 274.466H22.7106L24.1083 269.455H25.1822L26.5629 274.449H26.631L28.0458 269.455H29.1026L27.1083 276H26.1197L24.6879 270.972H24.5856L23.1538 276H22.1651ZM35.0685 270.92L34.1651 271.176C34.1083 271.026 34.0245 270.879 33.9137 270.737C33.8058 270.592 33.658 270.473 33.4705 270.379C33.283 270.286 33.043 270.239 32.7504 270.239C32.3498 270.239 32.016 270.331 31.7489 270.516C31.4847 270.697 31.3526 270.929 31.3526 271.21C31.3526 271.46 31.4435 271.658 31.6254 271.803C31.8072 271.947 32.0913 272.068 32.4776 272.165L33.4492 272.403C34.0344 272.545 34.4705 272.763 34.7575 273.055C35.0444 273.345 35.1879 273.719 35.1879 274.176C35.1879 274.551 35.0799 274.886 34.864 275.182C34.6509 275.477 34.3526 275.71 33.9691 275.881C33.5856 276.051 33.1396 276.136 32.631 276.136C31.9634 276.136 31.4109 275.991 30.9734 275.702C30.5359 275.412 30.2589 274.989 30.1424 274.432L31.0969 274.193C31.1879 274.545 31.3597 274.81 31.6126 274.986C31.8683 275.162 32.2021 275.25 32.614 275.25C33.0827 275.25 33.4549 275.151 33.7305 274.952C34.0089 274.75 34.1481 274.509 34.1481 274.227C34.1481 274 34.0685 273.81 33.9094 273.656C33.7504 273.5 33.506 273.384 33.1765 273.307L32.0856 273.051C31.4862 272.909 31.0458 272.689 30.7646 272.391C30.4862 272.089 30.3469 271.713 30.3469 271.261C30.3469 270.892 30.4506 270.565 30.658 270.281C30.8683 269.997 31.1538 269.774 31.5146 269.612C31.8782 269.45 32.2901 269.369 32.7504 269.369C33.3981 269.369 33.9066 269.511 34.2759 269.795C34.6481 270.08 34.9123 270.455 35.0685 270.92Z" fill="#71767B"/>
<path d="M30.435 131.268C31.17 130.765 32.19 130.33 32.19 130.33C32.19 130.33 29.2875 130.855 26.4 131.095C22.8675 131.388 19.0725 131.448 17.1675 131.193C12.66 130.593 19.6425 128.935 19.6425 128.935C19.6425 128.935 16.935 128.755 13.5975 130.36C9.66001 132.265 23.3475 133.135 30.435 131.268ZM24.03 128.86C22.605 125.658 17.7975 122.845 24.03 117.925C31.8075 111.79 27.8175 107.8 27.8175 107.8C29.43 114.138 22.1475 116.058 19.515 119.995C17.7225 122.688 20.3925 125.575 24.03 128.86ZM32.625 115.645C32.6325 115.645 19.485 118.93 25.7625 126.16C27.615 128.29 25.275 130.21 25.275 130.21C25.275 130.21 29.9775 127.78 27.8175 124.743C25.8 121.908 24.255 120.498 32.625 115.645ZM32.1675 135.933C32.13 136.008 32.0775 136.068 32.0175 136.128C41.64 133.6 38.1 127.21 33.5025 128.83C33.255 128.92 33.0375 129.085 32.8875 129.303C33.1575 129.205 33.435 129.13 33.7125 129.078C36.0375 128.59 39.375 132.19 32.1675 135.933ZM35.7 140.605C35.7 140.605 36.7875 141.498 34.5075 142.195C30.165 143.508 16.4475 143.905 12.6375 142.248C11.265 141.655 13.8375 140.823 14.6475 140.65C15.4875 140.47 15.975 140.5 15.975 140.5C14.4525 139.428 6.12751 142.608 11.745 143.515C27.06 146.005 39.675 142.398 35.7 140.605ZM18.9375 137.5C13.035 139.15 22.53 142.555 30.045 139.338C29.31 139.053 28.605 138.708 27.93 138.303C24.5775 138.94 23.025 138.985 19.98 138.64C17.4675 138.355 18.9375 137.5 18.9375 137.5ZM32.4225 144.79C26.52 145.9 19.2375 145.773 14.925 145.06C14.925 145.053 15.81 145.788 20.355 146.08C27.27 146.523 37.89 145.833 38.1375 142.563C38.1375 142.563 37.6575 143.8 32.4225 144.79ZM29.1525 134.275C24.7125 135.13 22.14 135.108 18.8925 134.77C16.38 134.508 18.0225 133.293 18.0225 133.293C11.5125 135.453 21.6375 137.898 30.735 135.235C30.15 135.025 29.61 134.703 29.1525 134.275Z" fill="#71767B"/>
<path d="M102.038 145.9C101.535 145.9 101.025 145.765 100.583 145.51L95.955 142.773C95.265 142.383 95.6025 142.248 95.8275 142.173C96.75 141.85 96.9375 141.783 97.92 141.22C98.025 141.16 98.16 141.183 98.265 141.25L101.82 143.358C101.948 143.433 102.128 143.433 102.248 143.358L116.1 135.363C116.228 135.288 116.31 135.138 116.31 134.988V118.998C116.31 118.84 116.228 118.698 116.093 118.615L102.248 110.628C102.12 110.553 101.948 110.553 101.82 110.628L87.9825 118.623C87.8475 118.698 87.765 118.848 87.765 119.005V134.988C87.765 135.138 87.8475 135.288 87.9825 135.355L91.7775 137.545C93.84 138.573 95.1 137.365 95.1 136.143V120.363C95.1 120.138 95.28 119.965 95.505 119.965H97.26C97.4775 119.965 97.665 120.138 97.665 120.363V136.15C97.665 138.895 96.165 140.47 93.5625 140.47C92.76 140.47 92.13 140.47 90.375 139.6L86.745 137.508C85.845 136.99 85.29 136.023 85.29 134.98V118.998C85.29 117.963 85.845 116.988 86.745 116.47L100.583 108.475C101.46 107.98 102.623 107.98 103.493 108.475L117.345 116.478C118.245 116.995 118.8 117.963 118.8 119.005V134.988C118.8 136.023 118.245 136.99 117.345 137.515L103.493 145.51C103.05 145.765 102.548 145.9 102.038 145.9ZM113.22 130.143C113.22 127.15 111.195 126.355 106.943 125.793C102.638 125.223 102.203 124.93 102.203 123.925C102.203 123.093 102.57 121.983 105.758 121.983C108.6 121.983 109.65 122.598 110.085 124.518C110.123 124.698 110.288 124.833 110.475 124.833H112.275C112.388 124.833 112.493 124.788 112.568 124.705C112.643 124.623 112.68 124.51 112.673 124.398C112.395 121.09 110.198 119.553 105.758 119.553C101.805 119.553 99.45 121.218 99.45 124.015C99.45 127.045 101.798 127.885 105.585 128.26C110.123 128.703 110.475 129.37 110.475 130.263C110.475 131.808 109.23 132.468 106.313 132.468C102.645 132.468 101.843 131.545 101.573 129.723C101.543 129.528 101.378 129.385 101.175 129.385H99.3825C99.1575 129.385 98.985 129.565 98.985 129.783C98.985 132.115 100.253 134.898 106.32 134.898C110.7 134.89 113.22 133.158 113.22 130.143Z" fill="#71767B"/>
<path d="M196.17 125.507L181.5 110.837C181.095 110.425 180.54 110.2 179.97 110.2C179.4 110.2 178.845 110.425 178.44 110.83L175.388 113.875L179.25 117.737C181.283 117.055 183.203 118.997 182.505 121.015L186.233 124.742C188.798 123.857 190.823 127.067 188.895 128.995C186.908 130.982 183.63 128.777 184.695 126.197L181.223 122.725V131.867C183.12 132.805 182.895 135.002 181.905 135.992C181.425 136.472 180.765 136.75 180.083 136.75C179.4 136.75 178.748 136.48 178.26 135.992C176.94 134.672 177.428 132.475 179.1 131.792V122.567C177.54 121.93 177.255 120.265 177.705 119.192L173.895 115.375L163.838 125.432C163.425 125.845 163.2 126.392 163.2 126.962C163.2 127.532 163.425 128.087 163.838 128.492L178.508 143.17C178.913 143.575 179.46 143.8 180.038 143.8C180.615 143.8 181.163 143.575 181.568 143.17L196.17 128.567C196.575 128.162 196.8 127.607 196.8 127.037C196.8 126.467 196.575 125.912 196.17 125.507Z" fill="#71767B"/>
<path d="M251.843 137.605C251.843 137.755 251.67 137.875 251.453 137.875C251.205 137.898 251.033 137.778 251.033 137.605C251.033 137.455 251.205 137.335 251.423 137.335C251.648 137.313 251.843 137.433 251.843 137.605ZM249.51 137.268C249.458 137.418 249.608 137.59 249.833 137.635C250.028 137.71 250.253 137.635 250.298 137.485C250.343 137.335 250.2 137.163 249.975 137.095C249.78 137.043 249.563 137.118 249.51 137.268ZM252.825 137.14C252.608 137.193 252.458 137.335 252.48 137.508C252.503 137.658 252.698 137.755 252.923 137.703C253.14 137.65 253.29 137.508 253.268 137.358C253.245 137.215 253.043 137.118 252.825 137.14ZM257.76 108.4C247.358 108.4 239.4 116.298 239.4 126.7C239.4 135.018 244.635 142.135 252.113 144.64C253.073 144.813 253.41 144.22 253.41 143.733C253.41 143.268 253.388 140.703 253.388 139.128C253.388 139.128 248.138 140.253 247.035 136.893C247.035 136.893 246.18 134.71 244.95 134.148C244.95 134.148 243.233 132.97 245.07 132.993C245.07 132.993 246.938 133.143 247.965 134.928C249.608 137.823 252.36 136.99 253.433 136.495C253.605 135.295 254.093 134.463 254.633 133.968C250.44 133.503 246.21 132.895 246.21 125.68C246.21 123.618 246.78 122.583 247.98 121.263C247.785 120.775 247.148 118.765 248.175 116.17C249.743 115.683 253.35 118.195 253.35 118.195C254.85 117.775 256.463 117.558 258.06 117.558C259.658 117.558 261.27 117.775 262.77 118.195C262.77 118.195 266.378 115.675 267.945 116.17C268.973 118.773 268.335 120.775 268.14 121.263C269.34 122.59 270.075 123.625 270.075 125.68C270.075 132.918 265.658 133.495 261.465 133.968C262.155 134.56 262.74 135.685 262.74 137.448C262.74 139.975 262.718 143.103 262.718 143.718C262.718 144.205 263.063 144.798 264.015 144.625C271.515 142.135 276.6 135.018 276.6 126.7C276.6 116.298 268.163 108.4 257.76 108.4ZM246.69 134.268C246.593 134.343 246.615 134.515 246.743 134.658C246.863 134.778 247.035 134.83 247.133 134.733C247.23 134.658 247.208 134.485 247.08 134.343C246.96 134.223 246.788 134.17 246.69 134.268ZM245.88 133.66C245.828 133.758 245.903 133.878 246.053 133.953C246.173 134.028 246.323 134.005 246.375 133.9C246.428 133.803 246.353 133.683 246.203 133.608C246.053 133.563 245.933 133.585 245.88 133.66ZM248.31 136.33C248.19 136.428 248.235 136.653 248.408 136.795C248.58 136.968 248.798 136.99 248.895 136.87C248.993 136.773 248.948 136.548 248.798 136.405C248.633 136.233 248.408 136.21 248.31 136.33ZM247.455 135.228C247.335 135.303 247.335 135.498 247.455 135.67C247.575 135.843 247.778 135.918 247.875 135.843C247.995 135.745 247.995 135.55 247.875 135.378C247.77 135.205 247.575 135.13 247.455 135.228Z" fill="#71767B"/>
<path d="M156.58 268.21V267.273H163.125V268.21H160.381V276H159.324V268.21H156.58ZM166.415 276.136C165.784 276.136 165.24 275.997 164.783 275.719C164.328 275.438 163.977 275.045 163.73 274.543C163.486 274.037 163.364 273.449 163.364 272.778C163.364 272.108 163.486 271.517 163.73 271.006C163.977 270.491 164.321 270.091 164.761 269.804C165.205 269.514 165.722 269.369 166.312 269.369C166.653 269.369 166.99 269.426 167.322 269.54C167.655 269.653 167.957 269.838 168.23 270.094C168.503 270.347 168.72 270.682 168.882 271.099C169.044 271.517 169.125 272.031 169.125 272.642V273.068H164.08V272.199H168.102C168.102 271.83 168.028 271.5 167.881 271.21C167.736 270.92 167.528 270.692 167.259 270.524C166.991 270.357 166.676 270.273 166.312 270.273C165.912 270.273 165.565 270.372 165.273 270.571C164.983 270.767 164.76 271.023 164.604 271.338C164.447 271.653 164.369 271.991 164.369 272.352V272.932C164.369 273.426 164.455 273.845 164.625 274.189C164.798 274.53 165.038 274.79 165.345 274.969C165.652 275.145 166.009 275.233 166.415 275.233C166.679 275.233 166.918 275.196 167.131 275.122C167.347 275.045 167.533 274.932 167.689 274.781C167.845 274.628 167.966 274.437 168.051 274.21L169.023 274.483C168.92 274.812 168.749 275.102 168.507 275.352C168.266 275.599 167.967 275.793 167.612 275.932C167.257 276.068 166.858 276.136 166.415 276.136ZM170.655 276V269.455H171.626V270.443H171.695C171.814 270.119 172.03 269.857 172.342 269.655C172.655 269.453 173.007 269.352 173.399 269.352C173.473 269.352 173.565 269.354 173.676 269.357C173.787 269.359 173.871 269.364 173.928 269.369V270.392C173.893 270.384 173.815 270.371 173.693 270.354C173.574 270.334 173.447 270.324 173.314 270.324C172.996 270.324 172.712 270.391 172.462 270.524C172.214 270.655 172.018 270.837 171.874 271.07C171.732 271.3 171.661 271.562 171.661 271.858V276H170.655ZM175.12 276V269.455H176.091V270.477H176.176C176.313 270.128 176.533 269.857 176.837 269.663C177.141 269.467 177.506 269.369 177.932 269.369C178.364 269.369 178.723 269.467 179.01 269.663C179.3 269.857 179.526 270.128 179.688 270.477H179.756C179.924 270.139 180.175 269.871 180.51 269.672C180.846 269.47 181.248 269.369 181.716 269.369C182.301 269.369 182.78 269.553 183.152 269.919C183.525 270.283 183.711 270.849 183.711 271.619V276H182.705V271.619C182.705 271.136 182.573 270.791 182.309 270.584C182.044 270.376 181.733 270.273 181.375 270.273C180.915 270.273 180.559 270.412 180.306 270.69C180.053 270.966 179.926 271.315 179.926 271.739V276H178.904V271.517C178.904 271.145 178.783 270.845 178.542 270.618C178.3 270.388 177.989 270.273 177.608 270.273C177.347 270.273 177.103 270.342 176.875 270.482C176.651 270.621 176.469 270.814 176.33 271.061C176.194 271.305 176.125 271.588 176.125 271.909V276H175.12ZM185.549 276V269.455H186.555V276H185.549ZM186.061 268.364C185.865 268.364 185.696 268.297 185.554 268.163C185.414 268.03 185.345 267.869 185.345 267.682C185.345 267.494 185.414 267.334 185.554 267.2C185.696 267.067 185.865 267 186.061 267C186.257 267 186.424 267.067 186.564 267.2C186.706 267.334 186.777 267.494 186.777 267.682C186.777 267.869 186.706 268.03 186.564 268.163C186.424 268.297 186.257 268.364 186.061 268.364ZM189.403 272.062V276H188.397V269.455H189.369V270.477H189.454C189.607 270.145 189.84 269.878 190.153 269.676C190.465 269.472 190.869 269.369 191.363 269.369C191.806 269.369 192.194 269.46 192.526 269.642C192.859 269.821 193.117 270.094 193.302 270.46C193.487 270.824 193.579 271.284 193.579 271.841V276H192.573V271.909C192.573 271.395 192.44 270.994 192.173 270.707C191.906 270.418 191.539 270.273 191.073 270.273C190.752 270.273 190.465 270.342 190.212 270.482C189.962 270.621 189.765 270.824 189.62 271.091C189.475 271.358 189.403 271.682 189.403 272.062ZM197.343 276.153C196.928 276.153 196.551 276.075 196.213 275.919C195.875 275.76 195.607 275.531 195.408 275.233C195.209 274.932 195.11 274.568 195.11 274.142C195.11 273.767 195.184 273.463 195.331 273.23C195.479 272.994 195.676 272.81 195.924 272.676C196.171 272.543 196.444 272.443 196.742 272.378C197.043 272.31 197.346 272.256 197.65 272.216C198.047 272.165 198.37 272.126 198.617 272.101C198.867 272.072 199.049 272.026 199.162 271.96C199.279 271.895 199.337 271.781 199.337 271.619V271.585C199.337 271.165 199.222 270.838 198.992 270.605C198.765 270.372 198.419 270.256 197.956 270.256C197.476 270.256 197.1 270.361 196.827 270.571C196.554 270.781 196.363 271.006 196.252 271.244L195.297 270.903C195.468 270.506 195.695 270.196 195.979 269.974C196.266 269.75 196.578 269.594 196.917 269.506C197.257 269.415 197.593 269.369 197.922 269.369C198.132 269.369 198.374 269.395 198.647 269.446C198.922 269.494 199.188 269.595 199.444 269.749C199.702 269.902 199.917 270.134 200.087 270.443C200.257 270.753 200.343 271.168 200.343 271.688V276H199.337V275.114H199.286C199.218 275.256 199.104 275.408 198.945 275.57C198.786 275.732 198.574 275.869 198.31 275.983C198.046 276.097 197.723 276.153 197.343 276.153ZM197.496 275.25C197.894 275.25 198.229 275.172 198.502 275.016C198.777 274.859 198.985 274.658 199.124 274.411C199.266 274.163 199.337 273.903 199.337 273.631V272.71C199.294 272.761 199.201 272.808 199.056 272.851C198.914 272.891 198.749 272.926 198.561 272.957C198.377 272.986 198.196 273.011 198.02 273.034C197.847 273.054 197.706 273.071 197.598 273.085C197.337 273.119 197.093 273.175 196.865 273.251C196.641 273.325 196.459 273.437 196.32 273.588C196.184 273.736 196.115 273.937 196.115 274.193C196.115 274.543 196.245 274.807 196.503 274.986C196.765 275.162 197.096 275.25 197.496 275.25ZM203.184 267.273V276H202.178V267.273H203.184Z" fill="#71767B"/>
<path d="M161.505 219.695C160.568 218.757 160.568 217.235 161.505 216.297C162.443 215.36 163.965 215.36 164.903 216.297L176.903 228.297C177.84 229.235 177.84 230.757 176.903 231.695L164.903 243.695C163.965 244.632 162.443 244.632 161.505 243.695C160.568 242.757 160.568 241.235 161.505 240.297L171.803 230L161.505 219.695ZM177.6 239.6H196.8C198.128 239.6 199.2 240.672 199.2 242C199.2 243.327 198.128 244.4 196.8 244.4H177.6C176.273 244.4 175.2 243.327 175.2 242C175.2 240.672 176.273 239.6 177.6 239.6Z" fill="#71767B"/>
<g clip-path="url(#clip0_75_5)">
<path d="M13.53 226.025C13.4775 227.72 14.325 228.478 14.3475 228.95C14.34 229.048 14.3025 229.138 14.25 229.22C14.1975 229.303 14.1225 229.37 14.04 229.415L13.08 230.09C12.9525 230.18 12.81 230.225 12.66 230.233C12.63 230.233 12.045 230.368 11.1225 228.313C10.56 229.018 9.84751 229.58 9.03001 229.963C8.21251 230.345 7.32751 230.54 6.42751 230.525C5.20501 230.593 1.89751 229.835 2.07001 226.31C1.95001 223.438 4.62751 221.653 7.38751 221.81C7.92001 221.81 9.00751 221.84 10.9125 222.283V221.113C11.115 219.125 9.81001 217.588 7.55251 217.82C7.37251 217.82 6.09751 217.783 4.11751 218.578C3.56251 218.833 3.49501 218.788 3.30751 218.788C2.75251 218.788 2.97751 217.175 3.09001 216.973C3.48001 216.493 5.78251 215.593 8.03251 215.608C9.54001 215.473 11.04 215.938 12.21 216.905C12.6825 217.438 13.05 218.06 13.275 218.735C13.5 219.41 13.59 220.123 13.5375 220.835V226.033L13.53 226.025ZM7.05001 228.455C9.48001 228.418 10.515 226.955 10.7475 226.168C10.935 225.41 10.905 224.938 10.905 224.113C10.1775 223.94 9.13501 223.745 7.93501 223.745C6.79501 223.663 4.72501 224.165 4.80751 226.168C4.71751 227.428 5.64001 228.523 7.05751 228.455H7.05001ZM19.8675 230.188C19.275 230.24 19.005 229.82 18.915 229.408L15.18 217.055C15.105 216.845 15.06 216.635 15.0375 216.41C15.0225 216.32 15.045 216.23 15.0975 216.155C15.15 216.08 15.2325 216.035 15.3225 216.02C15.3375 216.02 15.165 216.02 16.9875 216.02C17.6475 215.953 17.8575 216.47 17.9325 216.8L20.6175 227.36L23.1075 216.8C23.145 216.56 23.325 215.968 24.0675 216.035H25.3575C25.5225 216.02 26.19 215.998 26.31 216.815L28.8075 227.503L31.575 216.808C31.6125 216.643 31.7775 215.953 32.5275 216.028H34.005C34.0725 216.02 34.47 215.968 34.4025 216.673C34.3725 216.808 34.6575 215.87 30.4425 229.415C30.36 229.828 30.0825 230.248 29.49 230.195H28.0875C27.27 230.285 27.15 229.468 27.135 229.393L24.645 219.11L22.185 229.385C22.17 229.468 22.0575 230.278 21.2325 230.188H19.86H19.8675ZM40.38 230.608C39.9375 230.608 37.8375 230.585 36.075 229.685C35.9025 229.61 35.7525 229.49 35.6475 229.325C35.5425 229.16 35.49 228.98 35.49 228.793V227.99C35.49 227.353 35.955 227.473 36.15 227.548C36.9 227.855 37.3875 228.08 38.31 228.268C41.0625 228.83 42.27 228.095 42.5625 227.93C43.5525 227.345 43.6275 226.003 42.96 225.313C42.1725 224.653 41.7975 224.63 38.9775 223.738C38.6325 223.64 35.7 222.718 35.6925 219.808C35.6475 217.693 37.5675 215.593 40.905 215.608C41.8575 215.608 44.385 215.915 45.075 216.778C45.18 216.935 45.225 217.123 45.2175 217.303V218.06C45.2175 218.39 45.0975 218.563 44.85 218.563C44.2725 218.495 43.245 217.723 41.16 217.753C40.6425 217.723 38.1675 217.82 38.28 219.628C38.25 221.053 40.275 221.585 40.5075 221.645C43.245 222.47 44.1525 222.605 45.24 223.865C46.5225 225.53 45.8325 227.488 45.5625 228.02C44.13 230.833 40.4325 230.6 40.365 230.6L40.38 230.608ZM43.395 238.475C38.145 242.353 30.5175 244.415 24.0075 244.415C15.225 244.475 6.73501 241.243 0.210008 235.363C-0.277492 234.92 0.150008 234.313 0.750008 234.65C7.98751 238.79 16.1775 240.965 24.5175 240.958C30.7425 240.928 36.9 239.66 42.6375 237.245C43.5225 236.87 44.2725 237.83 43.395 238.475ZM45.585 235.978C44.91 235.115 41.1375 235.573 39.45 235.775C38.94 235.835 38.8575 235.393 39.315 235.063C42.3225 232.948 47.2575 233.555 47.82 234.268C48.3825 234.98 47.6625 239.923 44.85 242.285C44.415 242.653 44.0025 242.458 44.1975 241.978C44.8275 240.38 46.2525 236.84 45.5775 235.978H45.585Z" fill="#71767B"/>
</g>
<defs>
<clipPath id="clip0_75_5">
<rect width="48" height="48" fill="white" transform="translate(0 206)"/>
</clipPath>
</defs>
</svg>
